<svg height='100px' width='100px'  fill="#1a1a1a" xmlns="http://www.w3.org/2000/svg" xmlns:xlink="http://www.w3.org/1999/xlink" xml:space="preserve" style="shape-rendering:geometricPrecision;text-rendering:geometricPrecision;image-rendering:optimizeQuality;" viewBox="0 0 1.70666 1.70666" x="0px" y="0px" fill-rule="evenodd" clip-rule="evenodd"><defs><style type="text/css">
   
    .fil0 {fill:#1a1a1a}
   
  </style></defs><g><path class="fil0" d="M0.889811 1.28526c-0.248898,0 -0.451394,-0.2025 -0.451394,-0.451394 0,-0.248894 0.202496,-0.45139 0.451394,-0.45139 0.248878,0 0.45139,0.202496 0.45139,0.45139 0,0.248894 -0.20252,0.451394 -0.45139,0.451394zm0 -0.863866c-0.227453,0 -0.4125,0.185047 -0.4125,0.412496 0,0.227449 0.185047,0.412496 0.4125,0.412496 0.227449,0 0.412496,-0.185047 0.412496,-0.412496 0,-0.227449 -0.185071,-0.412496 -0.412496,-0.412496z"></path><path class="fil0" d="M0.889811 0.25526c-0.0656969,0 -0.119146,-0.0534291 -0.119146,-0.11913 0,-0.0657047 0.0534252,-0.119122 0.119146,-0.119122 0.0656772,0 0.11913,0.0534252 0.11913,0.11913 0,0.0657008 -0.0534606,0.119122 -0.11913,0.119122zm0 -0.199358c-0.044252,0 -0.0802283,0.036 -0.0802283,0.0802283 0,0.044248 0.0359764,0.0802244 0.0802283,0.0802244 0.0442244,0 0.0802087,-0.0359764 0.0802087,-0.0802244 -7.87402e-006,-0.0442283 -0.0360039,-0.0802283 -0.0802087,-0.0802283z"></path><path class="fil0" d="M0.889811 0.42139c-0.0107441,0 -0.0194606,-0.00872047 -0.0194606,-0.019437l0 -0.16613c0,-0.0107402 0.00871654,-0.019437 0.0194606,-0.019437 0.0107244,0 0.0194331,0.00872047 0.0194331,0.019437l0 0.16613c0,0.0107165 -0.00871654,0.019437 -0.0194331,0.019437z"></path><path class="fil0" d="M0.889811 1.65074c-0.0656969,0 -0.119146,-0.0534291 -0.119146,-0.11913 0,-0.0657008 0.0534488,-0.11913 0.119146,-0.11913 0.0656772,0 0.11913,0.0534291 0.11913,0.11913 0,0.0657008 -0.0534606,0.11913 -0.11913,0.11913zm0 -0.199358c-0.044252,0 -0.0802283,0.036 -0.0802283,0.0802283 0,0.044248 0.0359764,0.0802244 0.0802283,0.0802244 0.0442244,0 0.0802087,-0.0359764 0.0802087,-0.0802244 -7.87402e-006,-0.0442283 -0.0360039,-0.0802283 -0.0802087,-0.0802283z"></path><path class="fil0" d="M0.889811 1.45139c-0.0107441,0 -0.0194606,-0.00871654 -0.0194606,-0.019437l0 -0.16613c0,-0.0107402 0.00871654,-0.019437 0.0194606,-0.019437 0.0107244,0 0.0194331,0.00872047 0.0194331,0.019437l0 0.16613c0,0.0107283 -0.00871654,0.019437 -0.0194331,0.019437z"></path><path class="fil0" d="M1.18144 0.542205c-0.00758661,-0.00759843 -0.00758661,-0.0199016 0,-0.0275039l0.117484 -0.117469c0.00758268,-0.00759843 0.0199016,-0.00759843 0.0274882,0 0.00759843,0.00760236 0.00759843,0.0199055 0,0.0275039l-0.117469 0.117469c-0.00757087,0.00757087 -0.0199213,0.00752362 -0.0275039,0z"></path><path class="fil0" d="M0.312169 1.4115c-0.0464567,-0.0464567 -0.0464567,-0.122028 0,-0.168484 0.0462953,-0.0462953 0.122189,-0.0462795 0.168484,0 0.0463031,0.0463031 0.0462717,0.122165 0,0.168484 -0.0462283,0.0461969 -0.122256,0.0461969 -0.168484,0zm0.0275039 -0.140972c-0.0312795,0.0312795 -0.0312795,0.0821969 0,0.113469 0.0312795,0.0312795 0.0821969,0.0312795 0.113469,0 0.031189,-0.031189 0.0311654,-0.0822795 0,-0.113476 -0.0311732,-0.0312047 -0.0822874,-0.0311417 -0.113469,7.87402e-006z"></path><path class="fil0" d="M0.466894 1.27622c-0.00498819,0 -0.00995276,-0.00190945 -0.0137441,-0.00569291 -0.00759843,-0.00760236 -0.00759843,-0.0199055 0,-0.0275039l0.117469 -0.117469c0.00759843,-0.00759843 0.0199016,-0.00759843 0.0275039,0 0.00759843,0.00760236 0.00759843,0.0199055 0,0.0275039l-0.117469 0.117469c-0.00380709,0.00378346 -0.00879528,0.00569291 -0.0137598,0.00569291z"></path><path class="fil0" d="M1.58754 0.952992c-0.0656772,0 -0.11913,-0.0534291 -0.11913,-0.11913 0,-0.0657008 0.0534528,-0.11913 0.11913,-0.11913 0.0656811,0 0.11913,0.0534291 0.11913,0.11913 0,0.0657008 -0.0534488,0.11913 -0.11913,0.11913zm0 -0.199354c-0.044248,0 -0.0802244,0.0359961 -0.0802244,0.0802244 0,0.044252 0.0359764,0.0802283 0.0802244,0.0802283 0.044252,0 0.0802283,-0.0359764 0.0802283,-0.0802283 7.87402e-006,-0.0442283 -0.0359921,-0.0802244 -0.0802283,-0.0802244z"></path><path class="fil0" d="M1.48787 0.853323l-0.16613 0c-0.0107441,0 -0.019437,-0.00872047 -0.019437,-0.019437 0,-0.0107165 0.00869291,-0.019437 0.019437,-0.019437l0.16613 -7.87402e-006c0.0107244,0 0.019437,0.00872047 0.019437,0.019437 0,0.0107165 -0.00872047,0.0194449 -0.019437,0.0194449z"></path><path class="fil0" d="M0.457854 0.853323l-0.166134 0c-0.0107402,0 -0.0194331,-0.00872047 -0.0194331,-0.019437 0,-0.0107165 0.00871654,-0.019437 0.0194331,-0.019437l0.166134 -7.87402e-006c0.0107402,0 0.019437,0.00872047 0.019437,0.019437 0,0.0107165 -0.00869685,0.0194449 -0.019437,0.0194449z"></path><path class="fil0" d="M0.312169 0.424736c-0.0754685,-0.0754685 -0.0205315,-0.203362 0.0842402,-0.203362 0.103673,0 0.160823,0.126783 0.0842441,0.203362 -0.0463189,0.0463031 -0.122165,0.0462756 -0.168484,0zm0.0842402 -0.164476c-0.0705512,0 -0.107567,0.0861496 -0.0567362,0.136969 0.031189,0.031185 0.0822795,0.0311654 0.113476,0 0.0512205,-0.0512244 0.0134134,-0.136969 -0.0567402,-0.136969z"></path><path class="fil0" d="M0.584354 0.547898c-0.00498819,0 -0.00995276,-0.00190945 -0.0137677,-0.00569291l-0.117469 -0.117469c-0.00759843,-0.00759843 -0.00759843,-0.0199016 0,-0.0275039 0.00760236,-0.00759843 0.0199055,-0.00759843 0.0275039,0l0.117469 0.117469c0.00759843,0.00760236 0.00759843,0.0199055 0,0.0275039 -0.00377953,0.00378346 -0.00874803,0.00569291 -0.0137362,0.00569291z"></path><path class="fil0" d="M0.7735 1.03606c-0.0656969,0 -0.11913,-0.0534528 -0.11913,-0.11913 0,-0.0656929 0.0534488,-0.11913 0.11913,-0.11913 0.0656772,0 0.11913,0.0534291 0.11913,0.11913 -7.87402e-006,0.0657008 -0.053437,0.11913 -0.11913,0.11913zm0 -0.19935c-0.044252,0 -0.0802283,0.0359764 -0.0802283,0.0802283 0,0.0442283 0.0359764,0.0802283 0.0802283,0.0802283 0.044248,0 0.0802244,-0.036 0.0802244,-0.0802283 0,-0.0442283 -0.0359764,-0.0802283 -0.0802244,-0.0802283z"></path><path class="fil0" d="M1.07252 0.80348c-0.0473543,0 -0.0858819,-0.0385354 -0.0858819,-0.0859055 0,-0.0473661 0.0385354,-0.0859016 0.0858819,-0.0859016 0.0473661,0 0.0859016,0.0385354 0.0859016,0.0859016 2.3622e-005,0.0473701 -0.0385354,0.0859055 -0.0859016,0.0859055zm0 -0.13289c-0.0259016,0 -0.0469882,0.0210827 -0.0469882,0.0470079 0,0.0259016 0.0210866,0.0469843 0.0469882,0.0469843 0.0259252,0 0.0470079,-0.0210827 0.0470079,-0.0469843 1.5748e-005,-0.0259252 -0.0210591,-0.0470079 -0.0470079,-0.0470079z"></path><path class="fil0" d="M1.51702 0.308748c-0.0643386,0 -0.116693,-0.0523543 -0.116693,-0.116693 0,-0.0643622 0.0523543,-0.116693 0.116693,-0.116693 0.0643622,0 0.116717,0.0523543 0.116717,0.116693 -7.87402e-006,0.0643386 -0.0523622,0.116693 -0.116717,0.116693zm0 -0.194508c-0.0428937,0 -0.0777992,0.0349055 -0.0777992,0.0777992 0,0.0428937 0.0349055,0.0777992 0.0777992,0.0777992 0.0428937,0 0.077815,-0.0349055 0.077815,-0.0777992 0,-0.0428937 -0.0349291,-0.0777992 -0.077815,-0.0777992z"></path><path class="fil0" d="M1.36143 1.68965c-0.0857795,0 -0.155587,-0.0697913 -0.155587,-0.155591 0,-0.0858031 0.0697913,-0.155587 0.155587,-0.155587 0.0857992,0 0.155591,0.0697913 0.155591,0.155587 7.87402e-006,0.0857756 -0.0697835,0.155591 -0.155591,0.155591zm0 -0.272315c-0.0643583,0 -0.116693,0.0523583 -0.116693,0.116697 0,0.0643386 0.0523425,0.116693 0.116693,0.116693 0.0643543,0 0.116697,-0.0523543 0.116697,-0.116693 0,-0.0643386 -0.0523346,-0.116697 -0.116697,-0.116697z"></path><path class="fil0" d="M0.116689 1.12561c-0.0643386,0 -0.116693,-0.0523583 -0.116693,-0.116693 0,-0.0643386 0.0523543,-0.116697 0.116693,-0.116697 0.0643622,0 0.116693,0.0523583 0.116693,0.116697 0,0.0643346 -0.0523543,0.116693 -0.116693,0.116693zm0 -0.194492c-0.0428937,0 -0.0777992,0.0349016 -0.0777992,0.0777992 0,0.0428937 0.0349055,0.0777953 0.0777992,0.0777953 0.0428937,0 0.0777992,-0.0349016 0.0777992,-0.0777953 0,-0.0428976 -0.0349134,-0.0777992 -0.0777992,-0.0777992z"></path></g></svg>