<svg width="69" height="85" fill="none" xmlns="http://www.w3.org/2000/svg">
  <g filter="url(#filter0_d)" fill="#DF4F2F">
    <path d="M38.1 73.9a6 6 0 01-10.4 0l-9.2-16a6 6 0 015.2-9h18.5a6 6 0 015.2 9l-9.3 16z"/>
    <circle cx="34.5" cy="30.5" r="30.5"/>
  </g>
  <path d="M34.5 54a23.5 23.5 0 100-47 23.5 23.5 0 000 47z" fill="#fff"/>
  <path d="M46 14.4l-.5.4a9 9 0 01-2.4 1c-2.2.6-5.2 1-8.6 1-3.4 0-6.4-.4-8.6-1a9 9 0 01-2.4-1l-.5-.4.5-.5a9 9 0 012.4-1c2.2-.5 5.2-.9 8.6-.9 3.4 0 6.4.4 8.6 1a9 9 0 012.4.9l.5.5z" stroke="#DF4F2F" stroke-width="2"/>
  <path fill="#DF4F2F" d="M24 22h22v18H24z"/>
  <path d="M23.2 13.9v32.6c5.4 1.8 17 4.3 22.8 0V14M23.1 21c5.5 1.1 14.2 3.3 23.3 0M23.1 39.3c5.5 1.2 14.2 3.4 23.3 0" stroke="#DF4F2F" stroke-width="2"/>
  <mask id="a" fill="#fff">
    <path d="M41.7 31.7c-.3-4.7-2.8-5.3-4.8-5.3h-1.3v-.7l-.3-.1-.4.1-.2.8c-2.6 0-6 .4-6.6 5-.4 3.4 3 6.4 6.8 6.4s7-2.9 6.8-6.2zm-6-4.6a39.5 39.5 0 010 .1v-.1zm-1.3 0v.2l-.3-.2h.3zm4.8 8a5.6 5.6 0 01-4.3 1.7c-1.8 0-3.4-.8-4.6-2.1-1-1-1.3-1.7-1.2-3 .6-2.4 1.1-3.4 2.5-4H34s-2.9-.6-4 3c1.4-2.2 3.8-1.5 4.5-2.3 0 1.5 1 .7 1.7 1.4.7.9 1 2.5 1.8 2.8-.8-1.8.6-1.7-1.4-4 1 .6 1.6 0 3 .5-1.2-1.8-3.1-1.3-3.1-1.3s.7-.2 1.5-.2c1.4.3 2 .9 2.2 4.1.1 1.3 0 2.4-1 3.5z"/>
  </mask>
  <path d="M41.7 31.7c-.3-4.7-2.8-5.3-4.8-5.3h-1.3v-.7l-.3-.1-.4.1-.2.8c-2.6 0-6 .4-6.6 5-.4 3.4 3 6.4 6.8 6.4s7-2.9 6.8-6.2zm-6-4.6a39.5 39.5 0 010 .1v-.1zm-1.3 0v.2l-.3-.2h.3zm4.8 8a5.6 5.6 0 01-4.3 1.7c-1.8 0-3.4-.8-4.6-2.1-1-1-1.3-1.7-1.2-3 .6-2.4 1.1-3.4 2.5-4H34s-2.9-.6-4 3c1.4-2.2 3.8-1.5 4.5-2.3 0 1.5 1 .7 1.7 1.4.7.9 1 2.5 1.8 2.8-.8-1.8.6-1.7-1.4-4 1 .6 1.6 0 3 .5-1.2-1.8-3.1-1.3-3.1-1.3s.7-.2 1.5-.2c1.4.3 2 .9 2.2 4.1.1 1.3 0 2.4-1 3.5z" fill="#fff"/>
  <path d="M41.7 31.7l20-1.2-20 1.2zm-4.8-5.3v-20 20zm-1.3 0l-20 .4.3 21.4 21.3-1.8-1.6-20zm0-.7L16 22l-.1.5v.4l19.7 3zm0 0l-19.4-5-1 3.9.6 3.9 19.8-2.8zm0 0l19.4 5 .6-2.4v-2.6h-20zm-.7 0l19.6 4 .4-2v-2H35zm-.2.8l.1 20 14-.1 4.7-13.1-18.8-6.8zm-6.6 5L8.2 29.2l19.9 2.3zm7.6-4.4l1.6 20h.1l-1.7-20zm.3 0l7.2 18.6L34.4 7l1.6 20zm-.4.1l-19.5 4.5 5.5 23.6 22.2-9.8-8.2-18.3zm0-.1L34 7 11.7 9 16 31l19.6-4zm-1.2 0l18 9L67 6.4 34 7l.4 20zm0 .2l-13.2 15 19 16.7L52 36.6l-17.7-9.3zm-.3-.2l-.6-20-61.8 2.1L23 43.7 34 27.1zm5.1 8L25 21.2l14.3 14zm-9-.4L15.7 48.3l14.7-13.6zm-1.1-3L9.7 27 9.4 28l-.2 1.3 19.9 2.3zm2.5-4L28 8.2l-2 .3-1.7.7 7.2 18.7zm2.5 0l-4.2 19.7 8.8-39-4.6 19.4zm-4 3l-19-6 35.7 17-16.7-11zm4.5-2.3h20v-56.2L19 15.7l15.5 12.7zm1.7 1.4L21 42.8l15.3-13zm1.8 2.8l-6.8 18.8 46.2 16.8L56 23.9l-18 8.7zm-1.4-4L47 11.4l-25.7 30 15.4-12.8zm3 .5l-7.4 18.6 57.1 22.7-32.8-52-17 10.7zm-3.1-1.3l-6.3-19L42.1 47l-5.5-19.2zm1.5-.2L42.5 8l-2-.5h-2l-.4 20zm2.2 4.1l20-1.2-20 1.2zm21.4-1.2a25.7 25.7 0 00-9-18.6c-6.2-5.2-13-5.5-15.8-5.5v40c-.8 0-5.3-.1-9.7-3.7-4.8-4-5.4-8.8-5.5-9.8l40-2.4zM36.9 6.4l-3 .1 3.3 39.9H37v-40zM55.6 26c0 .7 0 1.5-.2 2.5l-39.6-5.8c-.2 1.6-.3 2.9-.2 4l40-.7zm-.4 3.5a20 20 0 00-.2-8.8c0-.2 0 0 0 0l.4 2.2-39.6 5.5.4 2.1v.1l-.1-.5c-.2-1-1-4.2-.1-8.3l39.2 7.7zm-.2 1.1l-38.8-10 38.8 10zm.6-5A20 20 0 0035.3 5.6v40a19.4 19.4 0 01-13.8-5.7 20 20 0 01-5.9-14.2h40zM35.3 5.6a20.6 20.6 0 00-14.4 5.8 20 20 0 00-6 14.3h40a20 20 0 01-19.6 19.9v-40zm-20 16.1l.6-2 37.6 13.6c.4-1.2.8-2.4 1-3.6l-39.2-8zM34.6 6.5c-1.6 0-7.5 0-13.5 3.2A25 25 0 008.2 29.2L48 33.8a15.6 15.6 0 01-7.9 11c-3.4 2-6.3 1.7-5.3 1.7l-.2-40zM8.2 29.2c-1 9.4 3.3 17 8.1 21.4A27.4 27.4 0 0035 58v-40c3.3 0 6.3 1.2 8.6 3.4 2.3 2 5.1 6.5 4.5 12.5L8.2 29.2zM35 58c12.3 0 27.8-9.7 26.8-27.4l-40 2.4c-.3-5.3 2.1-9.4 4.6-11.6 2.5-2.3 5.5-3.4 8.6-3.4v40zM37.4 47a18.7 18.7 0 01.1 0l-3-39.9H34l3.4 40zM28.7 8.4l-1.2.5 16.3 36.6-.6.2L28.7 8.4zm26.4 14.3l.2.8v.3a33.6 33.6 0 000-.6L16 31a18.8 18.8 0 010-.5v.3l.1.9 39-9zM37.2 47h.1L34.1 7.1l3.1 40zM16.5 18.2a8 8 0 01.2-.2L52 36.6l.4-.6-35.9-17.8zm31-6l-2.2-1.7L23 43.7c-.7-.4-1.3-.8-1.8-1.3l26.3-30.1zm-12.7 35l-.8-40h-.5l1.3 40zm-9.9-26a14.9 14.9 0 0110-4.4v40c5.6 0 12.7-1.6 18.7-7.7l-28.7-28zm10-4.4c4.7 0 8.1 2.2 10 4.3L15.7 48.3c4.3 4.6 11 8.5 19.3 8.5v-40zm10 4.3l1 1c.4.7 1.1 1.8 1.8 3.4 1.5 3.5 1.5 6.7 1.3 8.5L9.2 29.4a22.9 22.9 0 006.4 18.9L45 21zm3.6 15.5c.3-1 0 .7-1.4 2.9a17 17 0 01-8.3 7L24.4 9A23 23 0 0013 18.6c-2.1 3.5-3 7-3.3 8.3l38.8 9.7zM35.1 47.5a12.8 12.8 0 01-5-.1H30l4-19.6a4529 4529 0 004.2-19.6 21.2 21.2 0 00-3.5-.5c-1.6 0-4 0-6.6.4l7 39.4zm-1-19.7a1567.5 1567.5 0 004.4-19.5 20.2 20.2 0 00-4.3-.5A23.3 23.3 0 0011 24.6l38.2 12c-.6 1.7-1.6 4-3.7 6.1a16.8 16.8 0 01-16 4.6L34 27.7zm12.7 14a16.3 16.3 0 01-9.5 6.7H37l1.5-.3a23.3 23.3 0 004.2-1.5c2-1 4.8-2.6 7.3-5.7L19 15.7a19.1 19.1 0 019.8-6.3l.5-.1-1.5.3a23.6 23.6 0 00-14.5 10l33.4 22.1zM14.6 28.3A20.7 20.7 0 0032 49.2l-1.5-.4c-2-.5-6.1-2-9.5-6l30.6-25.9A21 21 0 0041 10.2l-2-.4 1.1.2a19.3 19.3 0 0114.5 18.4h-40zM21 42.7c-1.2-1.4-1.9-2.7-2-3-.1 0-.1-.2-.1 0l.3.6c.2.4 1 2.2 2.5 4 1.5 1.9 4.5 5.2 9.6 7L45 13.9a18.8 18.8 0 019.7 8l.4.8-.1-.2a33.8 33.8 0 00-3.5-5.5L21 42.7zM56 24c.8 1.6 1.5 3.8 1.7 6.2V30.7a22 22 0 00-1.9-8.9 26 26 0 00-3.7-6L21.3 41.3l-.7-1a15.9 15.9 0 01-2.4-6 18.2 18.2 0 01-.4-4.2 30.6 30.6 0 00.3 5 22.4 22.4 0 002 6.2l36-17.4zM26.4 45.7a22 22 0 007.7 2.9c2.3.4 4.3.3 4.4.3l-2-.1c-1.4-.2-2.9-.6-4.2-1L47 10.4A23.7 23.7 0 0038 9h-.4.2a15.9 15.9 0 013 .2 18.2 18.2 0 016.2 2.3L26.4 45.7zm30.2-27.3a22.8 22.8 0 00-25.4-9.9H31l5.5 19.3L42 47a16 16 0 01-3 .6 17 17 0 01-16.2-7.8l33.8-21.4zm-20 9.4l6.2 19a10.7 10.7 0 01-.8.2 14.8 14.8 0 01-4.3.6l.9-40a25 25 0 00-8.2 1.2l6.2 19zM33.7 47A18.2 18.2 0 0120.5 34l-.1-1.1 40-2.4c-.2-1.9-.5-7.2-3.6-12.3A22.1 22.1 0 0042.5 8.1l-8.8 39zM20.4 32.9c0-.4-.1-2.3.5-4.7.8-2.8 2.3-5.2 4-7l28.7 28a24 24 0 006.7-18.7l-40 2.4z" fill="#fff" mask="url(#a)"/>
  <defs>
    <filter id="filter0_d" x="0" y="0" width="69" height="84.9" filterUnits="userSpaceOnUse" color-interpolation-filters="sRGB">
      <feFlood flood-opacity="0" result="BackgroundImageFix"/>
      <feColorMatrix in="SourceAlpha" values="0 0 0 0 0 0 0 0 0 0 0 0 0 0 0 0 0 0 127 0"/>
      <feOffset dy="4"/>
      <feGaussianBlur stdDeviation="2"/>
      <feColorMatrix values="0 0 0 0 0 0 0 0 0 0 0 0 0 0 0 0 0 0 0.25 0"/>
      <feBlend in2="BackgroundImageFix" result="effect1_dropShadow"/>
      <feBlend in="SourceGraphic" in2="effect1_dropShadow" result="shape"/>
    </filter>
  </defs>
</svg>