<svg width="70" height="70" fill="none" xmlns="http://www.w3.org/2000/svg">
  <path d="M70 0H0v70h70V0z" fill="#fff"/>
  <path d="M35.5 61a25.5 25.5 0 100-51 25.5 25.5 0 000 51z" fill="#DF4F2F"/>
  <path d="M47 19.4l-.5.4a9 9 0 01-2.4 1c-2.2.6-5.2 1-8.6 1-3.4 0-6.4-.4-8.6-1a9 9 0 01-2.4-1l-.5-.4.5-.5a9 9 0 012.4-1c2.2-.5 5.2-.9 8.6-.9 3.4 0 6.4.4 8.6 1a9 9 0 012.4.9l.5.5z" stroke="#fff" stroke-width="2"/>
  <path d="M24 19l-.3 32.5c5.5 1.8 17.7 4.3 23.6 0L47 19" stroke="#fff" stroke-width="2"/>
  <path fill="#fff" d="M24 27h23v18H24z"/>
  <path d="M24.1 26c5.5 1.1 14.2 3.3 23.3 0M24 44c5.4 1.3 14 3.8 23 0" stroke="#fff" stroke-width="2"/>
  <path d="M42.5 36.5c0 3.3-2.4 6-6 6S30 40.3 30 37s2-5.5 5.5-5.5c5-.5 7 1.7 7 5z" fill="#DF4F2F"/>
  <mask id="a" fill="#fff">
    <path d="M43 36.4c-.3-4.9-2.8-5.6-4.9-5.6h-1.4v-.6c0-.1-.1-.2-.3-.2l-.3.1-.3.8c-2.7 0-6.2.5-6.8 5.4-.4 3.5 3.1 6.7 7 6.7 4 0 7.2-3 7-6.6zm-6.2-4.8a35 35 0 010 .1v-.1zm-1.2 0l-.1.2-.3-.2h.4zm4.9 8.5a5.7 5.7 0 01-4.5 1.7c-1.8 0-3.5-.8-4.7-2.2-1-1.1-1.4-1.8-1.2-3.1.6-2.5 1.1-3.6 2.5-4.2 1.4-.2 2.6 0 2.6 0s-3-.7-4.1 3c1.4-2.2 4-1.5 4.6-2.4 0 1.6 1.1.9 1.7 1.6.8.9 1 2.6 2 2.9-1-1.9.5-1.8-1.5-4.2 1 .6 1.6 0 3 .5-1.2-2-3.2-1.4-3.2-1.4l1.6-.2c1.4.3 2.1 1 2.3 4.4.1 1.4 0 2.5-1.1 3.6z"/>
  </mask>
  <path d="M43 36.4c-.3-4.9-2.8-5.6-4.9-5.6h-1.4v-.6c0-.1-.1-.2-.3-.2l-.3.1-.3.8c-2.7 0-6.2.5-6.8 5.4-.4 3.5 3.1 6.7 7 6.7 4 0 7.2-3 7-6.6zm-6.2-4.8a35 35 0 010 .1v-.1zm-1.2 0l-.1.2-.3-.2h.4zm4.9 8.5a5.7 5.7 0 01-4.5 1.7c-1.8 0-3.5-.8-4.7-2.2-1-1.1-1.4-1.8-1.2-3.1.6-2.5 1.1-3.6 2.5-4.2 1.4-.2 2.6 0 2.6 0s-3-.7-4.1 3c1.4-2.2 4-1.5 4.6-2.4 0 1.6 1.1.9 1.7 1.6.8.9 1 2.6 2 2.9-1-1.9.5-1.8-1.5-4.2 1 .6 1.6 0 3 .5-1.2-2-3.2-1.4-3.2-1.4l1.6-.2c1.4.3 2.1 1 2.3 4.4.1 1.4 0 2.5-1.1 3.6z" fill="#DF4F2F"/>
  <path d="M43 36.4l20-1.1-20 1.1zM38 30.8v-20 20zm-1.4 0l-20 .4.3 21.5 21.4-1.9-1.7-20zm0-.6l-19.6-3.7v.4l-.2.4 19.8 2.9zm0 0l-19.4-5-.9 3.8.5 3.8 19.8-2.6zm0 0L56.1 35l.6-2.4v-2.5h-20zm-.6 0L55.7 34l.4-1.9v-2H36zm-.3.7l.2 20h14l4.7-13.3-18.9-6.7zM29 36.3L9.2 34 29 36.3zm7.8-4.7l1.7 20v-.1l-1.7-20zm.3 0L44.6 50l-9-38.5 1.5 20zm-.3.1L17.3 36l5.3 24.2 22.5-10.3-8.3-18.2zm0-.1l-1.7-20L13 13.6l4.2 21.8 19.7-3.7zm-1.2 0l18 8.7L67.7 11l-32.6.6.5 20zm-.1.2L22 46.7 41.4 64l11.9-23.2-17.8-9zm-.3-.2l-.6-20-60.4 2.1L24 48.1l11.3-16.5zm5.3 8.5L26 26.3l14.5 13.8zm-9.2-.5L16.4 53l14.9-13.4zM30 36.5l-19.5-4.8-.3 1.3-.1 1.3 19.9 2.2zm2.5-4.2L29 12.7l-2 .3-1.7.7 7.3 18.6zm2.6 0L30.9 52l9-39-4.7 19.4zm-4.1 3L12 29.5l35.9 16.7-16.8-10.9zm4.6-2.4h20v-57.4L20 20.5 35.7 33zm1.7 1.6L22 47.2l15.4-12.7zm2 2.9l-7 18.7 45.8 17.2-20.8-44.4-18 8.5zm-1.5-4.2l10.5-17-26 29.5 15.5-12.5zm3 .5l-7.5 18.6 56.6 23-32-52-17 10.4zm-3.2-1.4l-6.4-19 12 38.2-5.6-19.2zm1.6-.2L44 12.6l-2-.5h-2l-.6 20zm2.3 4.4l20-1.2-20 1.2zM63 35.3a26 26 0 00-8.8-18.7 24.6 24.6 0 00-16-5.8v40c-1 0-5.6 0-10-3.8-4.6-4-5.1-8.7-5.2-9.4l40-2.3zM38 10.8L35 11l3.4 39.8H38.1v-40zm18.6 19.8c0 .6 0 1.4-.2 2.4L17 27.3c-.2 1.5-.2 2.8-.2 3.9l40-.6zm-.3 3.3a20 20 0 00-.2-8.6v.1l.4 2.1-39.7 5.3.4 2v-.3a20 20 0 01-.2-8l39.3 7.4zm-.3 1.1l-38.8-9.7L56.1 35zm.6-4.9A20 20 0 0036.4 10v40a19.4 19.4 0 01-14-5.9 20 20 0 01-5.7-14h40zM36.4 10a20.6 20.6 0 00-14.6 6 20 20 0 00-5.7 14.1h40A20 20 0 0136.4 50V10zm-20 16.3c.2-.7.3-1.4.6-2l37.7 13.3 1-3.6-39.3-7.7zm19.3-15.4c-1.6 0-7.7 0-13.8 3.4A25.3 25.3 0 009.2 34l39.7 4.5c-.1 1.1-.6 3.2-2 5.4a15.5 15.5 0 01-5.6 5.4c-3.5 1.9-6.4 1.6-5.3 1.6l-.3-40zM9.2 34c-1 9.3 3 16.8 8 21.4A27.5 27.5 0 0036 63V23c3.4 0 6.5 1.3 8.7 3.5 2.2 2 4.8 6.3 4.2 12L9.2 34zM36 63c13 0 28-10.4 27-27.7l-40 2.3c-.3-5 2-8.9 4.4-11.1 2.4-2.3 5.4-3.5 8.6-3.5v40zm2.6-11.5h.1l-3.1-39.9H35l3.5 39.9zM29.7 13l-1.2.5L45 50l-.5.2L29.7 13zm26.6 14.4a19.2 19.2 0 01.1.4l-39.3 7.5V35a22 22 0 00.2 1.1l39-8.6zM38.4 51.5h.1l-3.3-39.9 3.2 40zM17.5 23a7.8 7.8 0 01.2-.2l35.6 18.2.3-.6-36-17.4zm31.3-6l-2.2-1.7L24 48.1c-.7-.4-1.3-1-1.8-1.4l26.7-29.8zM36 51.6l-.8-40h-.5l1.3 40zM26 26.3A14.8 14.8 0 0136 21.8v40c5.8 0 13-1.7 19-8L26 26.4zM36 21.8c4.8 0 8.3 2.4 10.2 4.4L16.4 53c4.3 4.7 11 8.8 19.6 8.8v-40zm10.2 4.4a8.3 8.3 0 01.8 1c.4.7 1.1 1.8 1.7 3.3 1.5 3.4 1.4 6.5 1.3 8.2l-39.8-4.4A23.1 23.1 0 0016.4 53l29.8-26.8zm3.3 15c.3-1.1 0 .6-1.2 2.7a16.9 16.9 0 01-8.3 7L25.3 13.7a23 23 0 00-11.4 9.8c-2 3.4-3 6.8-3.3 8.2l39 9.5zM36.3 52a12.8 12.8 0 01-5.3-.1 4354.6 4354.6 0 018.4-39.1 21 21 0 00-3.6-.5c-1.6-.1-4-.2-6.8.4L36.3 52zm-1.1-19.7L39.9 13h-.1a22.4 22.4 0 00-12.5.5c-7.5 2.5-13 8.5-15.3 16l38.2 11.8a15 15 0 01-3.5 5.9 16.8 16.8 0 01-16.2 4.7h-.1l4.8-19.5zm12.7 13.9a16.1 16.1 0 01-9.4 6.8c-.3 0-.5.1-.2 0 0 0 .8 0 1.6-.3a23.3 23.3 0 004.3-1.6c2-1 4.7-2.7 7.2-5.7L20 20.5A19 19 0 0130 14l.4-.1-1.5.3a23.7 23.7 0 00-14.6 10.3l33.6 21.7zM15.7 32.9a20.8 20.8 0 0017.2 20.8h.1a19 19 0 01-11-6.6l30.9-25.3a21 21 0 00-10.6-7l-2-.4c-.4 0 .3 0 1.1.3a19.2 19.2 0 0114.3 18.2h-40zM22 47.2c-1.2-1.5-1.8-2.7-2-3 0 0 0-.2 0 0l.3.6a21.3 21.3 0 0012 11.3l14-37.4a18.8 18.8 0 019.7 8.1l.4.7-.1-.2a34.8 34.8 0 00-3.4-5.5l-31 25.4zm35.4-18.3a17 17 0 011.6 6v.5a22.1 22.1 0 00-1.8-8.7 26.3 26.3 0 00-3.7-6l-31.2 25-.6-1a15.6 15.6 0 01-2.3-5.7 18 18 0 01-.3-4.1s0-.1 0 0a47.6 47.6 0 000 2.8 22.4 22.4 0 002.1 8.2l36.2-17zm-30 21.3a22 22 0 007.8 3c2.4.4 4.4.3 4.5.3l-2-.1c-1.5-.2-3-.6-4.3-1.1l15-37a23.8 23.8 0 00-9.6-1.8h.2a15.9 15.9 0 013 .2 18.2 18.2 0 016.4 2.4l-21 34zm30.5-27a22.9 22.9 0 00-25.7-10l5.5 19.1 5.7 19.2a6.5 6.5 0 01-.7.2 18.4 18.4 0 01-7 .3 17.3 17.3 0 01-11.8-7.8l34-21zm-20.2 9.1l6.4 19a26.6 26.6 0 01-1.8.5c-.6.1-1.8.3-3.4.3l1-40a25 25 0 00-8.5 1.2l6.3 19zm-2.9 19.3a18 18 0 01-13-13.1c-.2-.8-.2-1.2-.1-.9l39.9-2.3c-.1-2-.4-7.2-3.4-12.3-4.3-7.4-11-9.6-14.3-10.4l-9 39zm-13.1-14c0-.3-.2-2.1.5-4.4a16 16 0 013.8-6.9L55 54a24.3 24.3 0 006.6-18.6l-40 2.3z" fill="#DF4F2F" mask="url(#a)"/>
</svg>