<svg width="70" height="70" fill="none" xmlns="http://www.w3.org/2000/svg">
  <path fill="#fff" d="M0 0h70v70H0z"/>
  <path d="M26 33h-1.5 2" stroke="#FF34D9"/>
  <path fill="#FF34D9" d="M13 30h10v10H13z"/>
  <circle cx="23.5" cy="49.5" r="6" stroke="#FF34D9"/>
  <circle cx="48.5" cy="47.5" r="8" stroke="#FF34D9"/>
  <circle cx="31.5" cy="17.5" r="3.5" fill="#FF34D9"/>
  <path fill="#FF34D9" d="M39 21.8l3.8-2.8 5.5 7.4-3.8 2.8z"/>
  <path stroke="#FF34D9" d="M54 36.5H38M41 34.5H27M24.5 34.5V42h-10l9 8.5 3-13m0 0l.5-2 .5-2-1 4zm0 0l8.5 8 2.5 2.5h.5m0 0h10.5L41 36l-3 12z"/>
  <path d="M27 34c-.5-.2-.6-.6-1-1v-1.5c0-.8.5-2 .5-2l4.5-5c1.1-1.2 1.5-2.3 3-3 .6-.3.9-.5 1.5-.5.8 0 2 .5 2 .5l6 8.5.5 2-.5 2-1 1.5-2.5 2-2 1.5s-.8.8-1 1.5c-.5 1.5.6 2.4 1 4l1 4.5s-1.1 1-2 1c-.6 0-1.5-.5-1.5-.5L35 48l-2.5-6s-.4-1.9 0-3l.5-1 4-4 1-2-4-4.5-5 5.5s-1.2 1.3-2 1z" fill="#FF34D9"/>
</svg>