<svg width="69" height="85" fill="none" xmlns="http://www.w3.org/2000/svg">
  <g filter="url(#filter0_d)" fill="#FF34D9">
    <path d="M38.1 73.9a6 6 0 01-10.4 0l-9.2-16a6 6 0 015.2-9h18.5a6 6 0 015.2 9l-9.3 16z"/>
    <circle cx="34.5" cy="30.5" r="30.5"/>
  </g>
  <path d="M34.5 55a24.5 24.5 0 100-49 24.5 24.5 0 000 49z" fill="#fff"/>
  <path d="M26.5 27H25h2" stroke="#FF34D9"/>
  <path fill="#FF34D9" d="M15 24h9v9h-9z"/>
  <circle cx="24.5" cy="41.5" r="5" stroke="#FF34D9"/>
  <circle cx="46.5" cy="39.5" r="7" stroke="#FF34D9"/>
  <circle cx="31" cy="13" r="3" fill="#FF34D9"/>
  <path fill="#FF34D9" d="M38 16.9l3.2-2.5L46 21l-3.2 2.5z"/>
  <path stroke="#FF34D9" d="M51 29.5H37M40 28.5H27M24.8 27.9v6.6H16l8 7.5 2.6-11.5m0 0l.4-1.7.5-1.8-.9 3.5zm0 0l7.5 7 2.2 2.3h.4m0 0H46l-6.6-10.6-2.7 10.6z"/>
  <path d="M27.2 27.7c-.5-.2-.6-.6-.9-1v-1.3c0-.7.4-1.8.4-1.8l4-4.5c1-1 1.3-2 2.6-2.6.5-.3.8-.5 1.3-.5.7 0 1.7.5 1.7.5l5.3 7.6.4 1.8-.4 1.8-1 1.3-2 1.8-1.8 1.3s-.7.8-.9 1.4c-.5 1.3.5 2.2.9 3.6l.8 4s-1 .9-1.7.9c-.5 0-1.3-.4-1.3-.4l-.4-1.4-2.2-5.4s-.4-1.7 0-2.7l.4-.9 3.5-3.5.9-1.8-3.5-4-4.4 4.9s-1 1.1-1.7.9z" fill="#FF34D9"/>
  <defs>
    <filter id="filter0_d" x="0" y="0" width="69" height="84.9" filterUnits="userSpaceOnUse" color-interpolation-filters="sRGB">
      <feFlood flood-opacity="0" result="BackgroundImageFix"/>
      <feColorMatrix in="SourceAlpha" values="0 0 0 0 0 0 0 0 0 0 0 0 0 0 0 0 0 0 127 0"/>
      <feOffset dy="4"/>
      <feGaussianBlur stdDeviation="2"/>
      <feColorMatrix values="0 0 0 0 0 0 0 0 0 0 0 0 0 0 0 0 0 0 0.25 0"/>
      <feBlend in2="BackgroundImageFix" result="effect1_dropShadow"/>
      <feBlend in="SourceGraphic" in2="effect1_dropShadow" result="shape"/>
    </filter>
  </defs>
</svg>