<svg width="15" height="11" viewBox="0 0 15 11" fill="none" xmlns="http://www.w3.org/2000/svg">
<path d="M15 9.25926V1.32275C15 0.590829 14.4092 0 13.6772 0H1.32275C0.590829 0 0 0.590829 0 1.32275V9.25926C0 9.99118 0.590829 10.582 1.32275 10.582H13.6772C14.4092 10.582 15 9.99118 15 9.25926ZM13.8448 1.22575C14.1358 1.51675 13.9771 1.81658 13.8183 1.96649L10.2381 5.24691L13.6772 8.82716C13.7831 8.95062 13.8536 9.14462 13.7302 9.2769C13.6155 9.41799 13.351 9.40917 13.2363 9.32099L9.38272 6.03175L7.49559 7.75132L5.61728 6.03175L1.76367 9.32099C1.64903 9.40917 1.38448 9.41799 1.26984 9.2769C1.14638 9.14462 1.21693 8.95062 1.32275 8.82716L4.7619 5.24691L1.18166 1.96649C1.02293 1.81658 0.864197 1.51675 1.1552 1.22575C1.44621 0.934744 1.74603 1.07584 1.99295 1.28748L7.49559 5.73192L13.0071 1.28748C13.254 1.07584 13.5538 0.934744 13.8448 1.22575V1.22575Z" fill="#696969"/>
</svg>
