<svg width="25" height="25" viewBox="0 0 22 22" fill="none" xmlns="http://www.w3.org/2000/svg">
<path d="M15.4688 6.1875C14.5596 6.18644 13.6665 6.42734 12.8811 6.88549C12.0958 7.34364 11.4465 8.00252 11 8.7945V5.5H9.625V11H15.125V9.625H12.1117C12.4178 9.02769 12.8776 8.52275 13.4438 8.16215C14.0099 7.80155 14.6618 7.59832 15.3326 7.57336C16.0033 7.54841 16.6686 7.70264 17.2599 8.02019C17.8513 8.33773 18.3473 8.80711 18.697 9.38002C19.0467 9.95294 19.2374 10.6087 19.2495 11.2798C19.2616 11.9509 19.0947 12.6131 18.7658 13.1982C18.437 13.7834 17.9582 14.2703 17.3787 14.609C16.7992 14.9476 16.14 15.1258 15.4688 15.125H15.125V16.5H15.4688C16.8363 16.5 18.1478 15.9568 19.1148 14.9898C20.0818 14.0228 20.625 12.7113 20.625 11.3438C20.625 9.97623 20.0818 8.66472 19.1148 7.69773C18.1478 6.73075 16.8363 6.1875 15.4688 6.1875Z" fill="#6B7280"/>
<path d="M17.875 4.125H2.75V6.30506L7.84712 11.4022L8.25 11.8051V17.875H11V16.5H12.375V17.875C12.375 18.2397 12.2301 18.5894 11.9723 18.8473C11.7144 19.1051 11.3647 19.25 11 19.25H8.25C7.88533 19.25 7.53559 19.1051 7.27773 18.8473C7.01987 18.5894 6.875 18.2397 6.875 17.875V12.375L1.77787 7.27719C1.51999 7.01939 1.37508 6.66971 1.375 6.30506V4.125C1.375 3.76033 1.51987 3.41059 1.77773 3.15273C2.03559 2.89487 2.38533 2.75 2.75 2.75H17.875V4.125Z" fill="#6B7280"/>
</svg>
