<svg height="100" width="100" fill="#1a1a1a" xmlns="http://www.w3.org/2000/svg" data-name="Layer 1" viewBox="0 0 128 128">
  <title>
  </title>
  <path d="M126 25.3c-15.7 0-29.6 4.7-36.2 12.2A14.1 14.1 0 0086 48.8c3 23.2 23.3 72.9 24.2 75a2 2 0 103.6-1.6c-.2-.5-20.9-51.2-23.8-74a10 10 0 012.8-8c5.8-6.6 18.8-11 33.2-11a2 2 0 000-4zM0 27.3a2 2 0 002 2c14.4 0 27.5 4.3 33.2 11a10 10 0 012.8 8c-3 22.7-24.6 73.4-24.8 73.9a2 2 0 001 2.6 2 2 0 002.6-1c1-2.1 22-51.7 25.2-75a14 14 0 00-3.7-11.2C31.7 30 17.8 25.3 2 25.3a2 2 0 00-2 2zM106 5a2 2 0 00-2-2C88 3 68.7 9.8 64 17 59.3 9.8 40 3 24 3a2 2 0 000 4C39.4 7 57.3 14 60.7 19.3a3.9 3.9 0 006.6 0C70.7 13.9 88.6 7 104 7a2 2 0 002-2zM110.3 18.9l4-.3a2 2 0 00-.3-4c-1.4 0-2.7.1-4 .3a2 2 0 00.1 4h.2zM101.7 16l-4 .9a2 2 0 101 4 74 74 0 013.8-1 2 2 0 00-.8-3.9zM87.6 24.6l3.6-1.5a2 2 0 001.1-2.6 2 2 0 00-2.5-1.2c-1.4.5-2.7 1-3.9 1.7a2 2 0 00-1 2.6 2 2 0 002.7 1zM77.7 30.7l3.1-2.3a2 2 0 00.6-2.8 2 2 0 00-2.8-.5l-3.4 2.5a2 2 0 00-.3 2.8 2 2 0 002.8.3zM67.1 39.7a2 2 0 002.8-.5 36.5 36.5 0 012.3-3 2 2 0 00-.2-3 2 2 0 00-2.9.3 40.7 40.7 0 00-2.5 3.5 2 2 0 00.5 2.7zM124.2 18.5a2 2 0 00.1-4l-2-.1a2 2 0 00-2 2 2 2 0 002 2h1.9zM64.3 116.4H64 64a2 2 0 00-2 2v2a2 2 0 002 2H64.3a2 2 0 002-2v-2a2 2 0 00-2-2zM26.5 16a2 2 0 00-.7 4l3.8.8a2 2 0 001-4l-4.1-.8zM66.3 94a2 2 0 00-2-2H64 64a2 2 0 00-2 2v4.1a2 2 0 002 2H64.3a2 2 0 002-2zM66.3 69.6a2 2 0 00-2-2H64 64a2 2 0 00-2 2v4.1a2 2 0 002 2H64.3a2 2 0 002-2zM62 61.5a2 2 0 002 2H64.3a2 2 0 002-2v-4a2 2 0 00-2-2H64 64a2 2 0 00-2 2zM18 18.9h.1a2 2 0 00.2-4c-1.3-.2-2.7-.3-4-.3a2 2 0 00-.3 4l4 .3zM66.3 81.8a2 2 0 00-2-2H64 64a2 2 0 00-2 2V86a2 2 0 002 2H64.3a2 2 0 002-2zM42.3 21l-3.8-1.7a2 2 0 00-2.6 1.2 2 2 0 001.2 2.6l3.6 1.5a2 2 0 002.6-1 2 2 0 00-1-2.6zM59.1 33.5a2 2 0 00-2.8-.2A2 2 0 0056 36a36.5 36.5 0 012.3 3.1 2 2 0 002.8.5 2 2 0 00.6-2.7 40.7 40.7 0 00-2.6-3.5zM50.6 30.7a2 2 0 002.8-.3 2 2 0 00-.3-2.8L49.7 25a2 2 0 00-2.8.5 2 2 0 00.5 2.8l3.2 2.3zM66.3 106.2a2 2 0 00-2-2H64 64a2 2 0 00-2 2v4.1a2 2 0 002 2H64.3a2 2 0 002-2zM4 18.5h2a2 2 0 002-2.1 2 2 0 00-2-2H4a2 2 0 000 4zM64 51.5h.2a2 2 0 002-2v-4a2 2 0 00-2-2H64a2 2 0 00-1.9 2v4a2 2 0 002 2z"/>
</svg>