<svg width="69" height="85" fill="none" xmlns="http://www.w3.org/2000/svg">
  <g filter="url(#filter0_d)" fill="#3CB201">
    <path d="M38.1 73.9a6 6 0 01-10.4 0l-9.2-16a6 6 0 015.2-9h18.5a6 6 0 015.2 9l-9.3 16z"/>
    <circle cx="34.5" cy="30.5" r="30.5"/>
  </g>
  <path d="M34.5 54a23.5 23.5 0 100-47 23.5 23.5 0 000 47z" fill="#fff"/>
  <path d="M42.6 19.3c.7-.6 1-.3 1.5 0 .5-.5 0-.6.4-1.3.5-.7 1.5-.5 2.3.6.8 1.1 1 .5 1.1-.3.2-.8 1-2.5 1.6-2.3.6.1 1.5 1-.4 3.4 0 0-.7 1 .3 1.7.6 1-.3 1-1.3.7-1-.3-2.2-.7-2.6.2-.4 1-.3 2-1.1 1.2-.2-.1.7-1.2.2-2-.5-.9-2.4-1-2-1.9zM46.9 32.6c-2 5.1-15.4 9.1-24 10.6l-4.6.8 2.6-4c.1-.1 2.8-4 6-8 6.3-7.8 9.2-9.1 10.9-9.4l1-.1c2.6-.2 5.2 1 6.8 3.2 1.6 2 2 4.7 1.3 6.9z" fill="#3CB201"/>
  <path d="M54.5 24.5c-1.8.5-1.2.8-1 1.4.4.7-1.4 2.2-2 .8-.5-1.5-.6-2-2.5-2.4-2-.4-2.8-.2-3 .2-.3.3-.5.2-.6-.2 0 0 1.2-1.2 3.2-1 2 0 3-.5 2.9-1-.1-.7 1-2.4 1.4-.8 0 .8-.2 1.4.7 1.4 1 0 2.6 1.1.9 1.6z" fill="#3CB201"/>
  <defs>
    <filter id="filter0_d" x="0" y="0" width="69" height="84.9" filterUnits="userSpaceOnUse" color-interpolation-filters="sRGB">
      <feFlood flood-opacity="0" result="BackgroundImageFix"/>
      <feColorMatrix in="SourceAlpha" values="0 0 0 0 0 0 0 0 0 0 0 0 0 0 0 0 0 0 127 0"/>
      <feOffset dy="4"/>
      <feGaussianBlur stdDeviation="2"/>
      <feColorMatrix values="0 0 0 0 0 0 0 0 0 0 0 0 0 0 0 0 0 0 0.25 0"/>
      <feBlend in2="BackgroundImageFix" result="effect1_dropShadow"/>
      <feBlend in="SourceGraphic" in2="effect1_dropShadow" result="shape"/>
    </filter>
  </defs>
</svg>