<svg width="70" height="70" fill="none" xmlns="http://www.w3.org/2000/svg">
  <path d="M70 0H0v70h70V0z" fill="#fff"/>
  <path d="M34.5 60a25.5 25.5 0 100-51 25.5 25.5 0 000 51z" fill="#3CB201"/>
  <path d="M41.6 21.3c.7-.6 1-.3 1.5 0 .5-.5 0-.6.4-1.3.5-.7 1.5-.5 2.3.6.8 1.1 1 .5 1.1-.3.2-.8 1-2.5 1.6-2.3.6.1 1.5 1-.4 3.4 0 0-.7 1 .3 1.7.6 1-.3 1-1.3.7-1-.3-2.2-.7-2.6.2-.4 1-.3 2-1.1 1.2-.2-.1.7-1.2.2-2-.5-.9-2.4-1-2-1.9zM45.9 34.6c-2 5.1-15.4 9.1-24 10.6l-4.6.8 2.6-4c.1-.1 2.8-4 6-8 6.3-7.8 9.2-9.1 10.9-9.4l1-.1c2.6-.2 5.2 1 6.8 3.2 1.6 2 2 4.7 1.3 6.9z" fill="#fff"/>
  <path d="M53.5 26.5c-1.8.5-1.2.8-1 1.4.4.7-1.4 2.2-2 .8-.5-1.5-.6-2-2.5-2.4-2-.4-2.8-.2-3 .2-.3.3-.5.2-.6-.2 0 0 1.2-1.2 3.2-1 2 0 3-.5 2.9-1-.1-.7 1-2.4 1.4-.8 0 .8-.2 1.4.7 1.4 1 0 2.6 1.1.9 1.6z" fill="#fff"/>
</svg>