<svg width="69" height="85" fill="none" xmlns="http://www.w3.org/2000/svg">
  <g filter="url(#filter0_d)" fill="#74829B">
    <path d="M38.1 73.9a6 6 0 01-10.4 0l-9.2-16a6 6 0 015.2-9h18.5a6 6 0 015.2 9l-9.3 16z"/>
    <circle cx="34.5" cy="30.5" r="30.5"/>
  </g>
  <path d="M34.5 54a23.5 23.5 0 100-47 23.5 23.5 0 000 47z" fill="#fff"/>
  <path d="M34.1 48a1.1 1.1 0 01-1.1-1.2V13.4a1.1 1.1 0 112.2 0v33.4a1.1 1.1 0 01-1 1.1z" fill="#74829B"/>
  <path d="M34.1 21l-4-4a1.1 1.1 0 01.8-2c.3 0 .6.2.8.4l2.4 2.4 2.5-2.4a1.1 1.1 0 011.9.8c0 .3-.1.6-.3.8l-4 4zM37.3 45.1c-.3 0-.6 0-.8-.3l-2.4-2.4-2.4 2.4a1.1 1.1 0 11-1.6-1.6l4-4 4 4a1.1 1.1 0 01-.8 2zM48.8 39.8l-.5-.1-29.7-17.2a1.1 1.1 0 01-.1-1.9 1.1 1.1 0 011.2 0l29.7 17a1.1 1.1 0 01-.6 2.2z" fill="#74829B"/>
  <path d="M20.4 27.1a1.2 1.2 0 11-.3-2.3l3.3-.9-1-3.2a1.1 1.1 0 112.3-.6l1.5 5.4-5.6 1.6h-.2zM44.4 41a1.1 1.1 0 01-1.1-.9l-1.5-5.4 5.5-1.5a1.1 1.1 0 11.6 2.2l-3.3.9 1 3.3a1.1 1.1 0 01-.9 1.4h-.3zM19.2 39.8a1.1 1.1 0 01-.6-2.1l29.7-17.2a1.1 1.1 0 011.1 2L19.7 39.7l-.5.1z" fill="#74829B"/>
  <path d="M23.6 41h-.3a1.1 1.1 0 01-.8-1.4l.9-3.3-3.4-.9a1.1 1.1 0 01-.8-1.4 1.1 1.1 0 011.4-.8l5.6 1.5-1.5 5.5a1.1 1.1 0 01-1.1.8zM47.6 27.1a1 1 0 01-.3 0l-5.5-1.6 1.5-5.5a1.1 1.1 0 112.2.7l-.9 3.3 3.3.9a1.2 1.2 0 01-.3 2.2z" fill="#74829B"/>
  <defs>
    <filter id="filter0_d" x="0" y="0" width="69" height="84.9" filterUnits="userSpaceOnUse" color-interpolation-filters="sRGB">
      <feFlood flood-opacity="0" result="BackgroundImageFix"/>
      <feColorMatrix in="SourceAlpha" values="0 0 0 0 0 0 0 0 0 0 0 0 0 0 0 0 0 0 127 0"/>
      <feOffset dy="4"/>
      <feGaussianBlur stdDeviation="2"/>
      <feColorMatrix values="0 0 0 0 0 0 0 0 0 0 0 0 0 0 0 0 0 0 0.25 0"/>
      <feBlend in2="BackgroundImageFix" result="effect1_dropShadow"/>
      <feBlend in="SourceGraphic" in2="effect1_dropShadow" result="shape"/>
    </filter>
  </defs>
</svg>