<svg width="70" height="70" fill="none" xmlns="http://www.w3.org/2000/svg">
  <path d="M70 0H0v70h70V0z" fill="#fff"/>
  <path d="M35.5 61a25.5 25.5 0 100-51 25.5 25.5 0 000 51z" fill="#74829B"/>
  <path d="M36 52.3a1.1 1.1 0 01-1-1V18.6a1.1 1.1 0 112.1 0v32.6a1.1 1.1 0 01-1 1z" fill="#fff"/>
  <path d="M36 26.2l-3.9-4a1.1 1.1 0 01.8-1.8c.3 0 .6 0 .8.3l2.4 2.4 2.3-2.4a1.1 1.1 0 012 .8c0 .3-.2.6-.4.8l-4 3.9zM39.2 49.6c-.3 0-.6 0-.8-.3L36 47l-2.3 2.3a1.1 1.1 0 11-1.6-1.6l3.9-3.9 4 4a1.1 1.1 0 01-.8 1.8zM50.4 44.4l-.6-.1-28.9-16.7a1.1 1.1 0 010-1.8 1.1 1.1 0 011.1 0l29 16.6a1.1 1.1 0 01-.6 2z" fill="#fff"/>
  <path d="M22.7 32a1.1 1.1 0 11-.3-2.1l3.2-1-.9-3a1.1 1.1 0 112.2-.7l1.4 5.4-5.4 1.4h-.2zM46 45.6a1.1 1.1 0 01-1-.8l-1.4-5.4 5.3-1.4a1.1 1.1 0 11.6 2.1l-3.2 1 .8 3.1a1.1 1.1 0 01-.8 1.4h-.2zM21.5 44.4a1.1 1.1 0 01-.6-2l29-16.7a1.1 1.1 0 011 2L22 44.2l-.5.1z" fill="#fff"/>
  <path d="M25.8 45.6h-.3a1.1 1.1 0 01-.8-1.4l.9-3.2-3.2-.8a1.1 1.1 0 01-.8-1.4 1.1 1.1 0 011.3-.8l5.4 1.4-1.4 5.4a1.1 1.1 0 01-1.1.8zM49.2 32a1 1 0 01-.3 0l-5.3-1.4 1.4-5.4a1.1 1.1 0 112.1.6l-.9 3.2 3.3.9a1.1 1.1 0 01-.3 2.2z" fill="#fff"/>
</svg>