<svg width="69" height="85" fill="none" xmlns="http://www.w3.org/2000/svg">
  <g filter="url(#filter0_d)" fill="#FF9C34">
    <path d="M38.1 73.9a6 6 0 01-10.4 0l-9.2-16a6 6 0 015.2-9h18.5a6 6 0 015.2 9l-9.3 16z"/>
    <circle cx="34.5" cy="30.5" r="30.5"/>
  </g>
  <path fill="#FF9C34" d="M14.9 11.9h38v38h-38z"/>
  <path fill="#fff" d="M14.9 11.9h38v38h-38z"/>
  <path fill="#FF9C34" d="M33.6 4l27.1 26.6-26.6 27.1L7 31.1z"/>
  <path fill="#fff" d="M33.6 4l27.1 26.6-26.6 27.1L7 31.1z"/>
  <path d="M45 32.2l-1.7 1s1.4-1.7 2.7-2c1.2-.5 2-.3 3.2 0 1 .1 1.6.6 2.6 1l3.2 1-1 1s-1.6 1.5-2.7 2.2c-1 .5-1.6.7-2.7 1-1.4.5-2.2 1-3.7 1-1 0-1.7 0-2.6-.5-1-.4-1.5-.7-2.2-1.5-1.3-1.6-1-5.3-1-5.3V27l-.5 2.1c-.5 1.3-1 2-1.6 3.2-.8 1.2-1.2 2-2.2 3.1-.7 1-1.1 1.4-2 2.1-1.4 1-3.8 1.6-3.8 1.6l3.2-2.1 2.1-2.1 3.2-5.8c1-3.2 1-3.7 1.6-8.4V19l.5.5s.4 1.6.5 2.7c.4 2 .6 5.2.6 5.2s.2 3.2.5 5.3l.5 2.6s1.3.9 2.2 1c.8.2 1.3.2 2 0 1.2-.1 1.7-.5 2.7-1 1.3-.5 3.2-1.6 3.2-1.6s-1-.2-1.6-.5c-.8-.3-1.2-.7-2.1-1-.6-.3-1-.6-1.6-.6-.6 0-1.6.6-1.6.6zM32.3 25.5c1 1.2.7 3.5.7 3.5s-1-1.6-1.9-2.5c-.4-.4-.6-.7-1.2-1-.7-.3-1.7.1-1.9-.5v-.5-.5c.1-.4.2-.7.6-1 .8-.3 2.5 1 2.5 1l1.2 1.5zM26.4 25.1c-.2-2.8-1-7.1-1-7.1v9.9l-.5 3.3c-.2 1-.9 2.4-1 2.7-.3.3-.8 1.6-1.6 2.2-.6.4-1.6.5-1.6.5s-1.3.2-2 0c-.7 0-1.2 0-1.6-.5-.6-.6-.5-2.2-.5-2.2l.5-3.3s-.7.6-1 1.1a7 7 0 00-.6 1s-.5 1-.5 1.7c0 1.1.2 1.4.5 2.2.3.9.8 1.2 1.6 1.7.5.3.9.4 1.5.5 1 .2 1.6.3 2.6 0 1.2-.3 1.7-.8 2.6-1.6 1.4-1.2 2-2.2 2.6-3.9 1.2-3 .3-5 0-8.2z" fill="#FF9C34" stroke="#FF9C34"/>
  <defs>
    <filter id="filter0_d" x="0" y="0" width="69" height="84.9" filterUnits="userSpaceOnUse" color-interpolation-filters="sRGB">
      <feFlood flood-opacity="0" result="BackgroundImageFix"/>
      <feColorMatrix in="SourceAlpha" values="0 0 0 0 0 0 0 0 0 0 0 0 0 0 0 0 0 0 127 0"/>
      <feOffset dy="4"/>
      <feGaussianBlur stdDeviation="2"/>
      <feColorMatrix values="0 0 0 0 0 0 0 0 0 0 0 0 0 0 0 0 0 0 0.25 0"/>
      <feBlend in2="BackgroundImageFix" result="effect1_dropShadow"/>
      <feBlend in="SourceGraphic" in2="effect1_dropShadow" result="shape"/>
    </filter>
  </defs>
</svg>