<svg width="70" height="70" fill="none" xmlns="http://www.w3.org/2000/svg">
  <path d="M70 0H0v70h70V0z" fill="#fff"/>
  <path d="M54 16H16v38h38V16z" fill="#FF9C34"/>
  <path d="M54 16H16v38h38V16z" fill="#FF9C34"/>
  <path d="M61.9 34.8L34.8 8 8 35.2 35.2 62 62 34.8z" fill="#FF9C34"/>
  <path d="M61.9 34.8L34.8 8 8 35.2 35.2 62 62 34.8z" fill="#FF9C34"/>
  <path d="M44 35l-1.5 1s1.3-1.6 2.5-2c1.1-.4 1.9-.2 3 0 1 .2 1.5.6 2.5 1l3 1-1 1s-1.4 1.4-2.5 2l-2.5 1c-1.3.5-2 1-3.5 1-1 0-1.6 0-2.5-.5-.9-.4-1.4-.7-2-1.5-1.3-1.5-1-5-1-5v-4l-.5 2c-.4 1.2-.8 1.9-1.5 3-.7 1.2-1 2-2 3-.7.8-1.1 1.4-2 2-1.2.9-3.5 1.5-3.5 1.5s2-1 3-2l2-2 3-5.5c1-3 1-3.5 1.5-8v-1.5l.5.5a60.6 60.6 0 001.5 12.5L41 38s1.1.8 2 1c.8.2 1.2.1 2 0 1-.2 1.5-.6 2.5-1l3-1.5L49 36l-2-1c-.6-.2-.9-.5-1.5-.5S44 35 44 35zM32.5 29c.7 1.2.5 3.5.5 3.5s-.8-1.6-1.5-2.5c-.4-.4-.5-.7-1-1-.5-.3-1.3.1-1.5-.5V28v-.5c0-.4.1-.8.5-1 .6-.3 2 1 2 1l1 1.5zM27.5 28.5c-.2-2.6-1-6.5-1-6.5v9l-.5 3c-.2 1-.8 2.3-1 2.5-.2.2-.7 1.4-1.5 2-.6.4-1.5.5-1.5.5h-2c-.6-.1-1 0-1.5-.5-.6-.5-.5-2-.5-2l.5-3s-.7.5-1 1l-.5 1s-.5.9-.5 1.5c0 1 .2 1.3.5 2 .3.8.8 1 1.5 1.5.5.3.9.4 1.5.5 1 .2 1.6.2 2.5 0 1.1-.3 1.6-.8 2.5-1.5a8 8 0 002.5-3.5c1.1-2.7.2-4.6 0-7.5z" fill="#fff" stroke="#fff"/>
</svg>