<svg width="16" height="16" viewBox="0 0 16 16" fill="none" xmlns="http://www.w3.org/2000/svg">
<path fill-rule="evenodd" clip-rule="evenodd" d="M8 15C9.85652 15 11.637 14.2625 12.9497 12.9497C14.2625 11.637 15 9.85652 15 8C15 6.14348 14.2625 4.36301 12.9497 3.05025C11.637 1.7375 9.85652 1 8 1C6.14348 1 4.36301 1.7375 3.05025 3.05025C1.7375 4.36301 1 6.14348 1 8C1 9.85652 1.7375 11.637 3.05025 12.9497C4.36301 14.2625 6.14348 15 8 15V15ZM8 16C10.1217 16 12.1566 15.1571 13.6569 13.6569C15.1571 12.1566 16 10.1217 16 8C16 5.87827 15.1571 3.84344 13.6569 2.34315C12.1566 0.842855 10.1217 0 8 0C5.87827 0 3.84344 0.842855 2.34315 2.34315C0.842855 3.84344 0 5.87827 0 8C0 10.1217 0.842855 12.1566 2.34315 13.6569C3.84344 15.1571 5.87827 16 8 16V16Z" fill="#1B1B1B"/>
<path d="M8.93001 6.58801L6.64001 6.87501L6.55801 7.25501L7.00801 7.33801C7.30201 7.40801 7.36001 7.51401 7.29601 7.80701L6.55801 11.275C6.36401 12.172 6.66301 12.594 7.36601 12.594C7.91101 12.594 8.54401 12.342 8.83101 11.996L8.91901 11.58C8.71901 11.756 8.42701 11.826 8.23301 11.826C7.95801 11.826 7.85801 11.633 7.92901 11.293L8.93001 6.58801Z" fill="#1B1B1B"/>
<path d="M8 5.5C8.55228 5.5 9 5.05228 9 4.5C9 3.94772 8.55228 3.5 8 3.5C7.44772 3.5 7 3.94772 7 4.5C7 5.05228 7.44772 5.5 8 5.5Z" fill="#000000"/>
</svg>
