<svg width="15" height="12" viewBox="0 0 15 12" fill="none" xmlns="http://www.w3.org/2000/svg">
<path d="M11.0299 7.34279C10.0888 6.52395 8.85973 6.02829 7.51341 6.02829C6.1671 6.02829 4.93799 6.52395 3.99524 7.34446C3.9692 7.36793 3.95327 7.40057 3.95077 7.43554C3.94827 7.4705 3.95941 7.50508 3.98184 7.53201L4.58467 8.25038C4.63323 8.30731 4.71863 8.31401 4.77557 8.26545C5.50566 7.62243 6.46349 7.23394 7.51341 7.23394C8.56334 7.23394 9.52117 7.62243 10.2513 8.26378C10.3082 8.31234 10.3936 8.30564 10.4422 8.24871L11.045 7.53034C11.0919 7.47508 11.0852 7.39135 11.0299 7.34279ZM12.9958 4.99678C11.5105 3.75931 9.59987 3.01414 7.51341 3.01414C5.42696 3.01414 3.51632 3.75931 2.02935 4.99678C2.00214 5.01972 1.98512 5.05249 1.98198 5.08794C1.97884 5.12339 1.98985 5.15864 2.0126 5.186L2.61543 5.90437C2.66232 5.96131 2.74772 5.968 2.80298 5.92112C4.08064 4.85947 5.72335 4.2198 7.51341 4.2198C9.30348 4.2198 10.9462 4.85947 12.2222 5.92112C12.2791 5.968 12.3628 5.96131 12.4097 5.90437L13.0126 5.186C13.0594 5.12907 13.0527 5.04367 12.9958 4.99678V4.99678ZM14.95 2.66919C12.9171 1.00137 10.3149 0 7.47992 0C4.66337 0 2.07791 0.987969 0.0500593 2.6357C0.0361273 2.64689 0.0245757 2.66076 0.016085 2.67649C0.00759417 2.69221 0.00233578 2.70948 0.00061932 2.72727C-0.00109714 2.74506 0.000763087 2.76301 0.00609047 2.78007C0.0114179 2.79713 0.0201046 2.81295 0.0316394 2.8266L0.634468 3.54497C0.681355 3.60023 0.765081 3.6086 0.82034 3.56339C2.64055 2.08813 4.95641 1.20566 7.47992 1.20566C10.0219 1.20566 12.3528 2.10153 14.178 3.5952C14.235 3.64209 14.3187 3.63372 14.3656 3.57678L14.9684 2.85841C15.017 2.80148 15.0086 2.71608 14.95 2.66919ZM6.42497 9.98016C6.42497 10.2644 6.53788 10.537 6.73887 10.738C6.93985 10.9389 7.21244 11.0519 7.49667 11.0519C7.7809 11.0519 8.05349 10.9389 8.25447 10.738C8.45545 10.537 8.56836 10.2644 8.56836 9.98016C8.56836 9.69593 8.45545 9.42334 8.25447 9.22236C8.05349 9.02138 7.7809 8.90847 7.49667 8.90847C7.21244 8.90847 6.93985 9.02138 6.73887 9.22236C6.53788 9.42334 6.42497 9.69593 6.42497 9.98016Z" fill="black"/>
</svg>
