<svg height='100px' width='100px'  fill="none" xmlns:dc="http://purl.org/dc/elements/1.1/" xmlns:cc="http://creativecommons.org/ns#" xmlns:rdf="http://www.w3.org/1999/02/22-rdf-syntax-ns#" xmlns:svg="http://www.w3.org/2000/svg" xmlns="http://www.w3.org/2000/svg" xmlns:sodipodi="http://sodipodi.sourceforge.net/DTD/sodipodi-0.dtd" xmlns:inkscape="http://www.inkscape.org/namespaces/inkscape" viewBox="0 0 16.933333 16.933334" version="1.1" enable-background="new" x="0px" y="0px"><svg:g><svg:path style="color:#000000;font-style:normal;font-variant:normal;font-weight:normal;font-stretch:normal;font-size:medium;line-height:normal;font-family:sans-serif;font-variant-ligatures:normal;font-variant-position:normal;font-variant-caps:normal;font-variant-numeric:normal;font-variant-alternates:normal;font-feature-settings:normal;text-indent:0;text-align:start;text-decoration:none;text-decoration-line:none;text-decoration-style:solid;text-decoration-color:#000000;letter-spacing:normal;word-spacing:normal;text-transform:none;writing-mode:lr-tb;direction:ltr;text-orientation:mixed;dominant-baseline:auto;baseline-shift:baseline;text-anchor:start;white-space:normal;shape-padding:0;clip-rule:nonzero;display:inline;overflow:visible;visibility:visible;opacity:1;isolation:auto;mix-blend-mode:normal;color-interpolation:sRGB;color-interpolation-filters:linearRGB;solid-color:#000000;solid-opacity:1;vector-effect:none;fill:#1a1a1a;fill-opacity:1;fill-rule:nonzero;stroke:none;stroke-width:0.52916664;stroke-linecap:round;stroke-linejoin:round;stroke-miterlimit:4;stroke-dasharray:none;stroke-dashoffset:0;stroke-opacity:1;color-rendering:auto;image-rendering:auto;shape-rendering:auto;text-rendering:auto;enable-background:accumulate" d="m 8.4653729,1.0493352 c -3.3209786,0 -6.0172123,2.69829 -6.0172018,6.019271 0,1.748684 1.4861276,3.8810118 2.9372878,5.6368658 1.4511496,1.755854 2.9005979,3.107304 2.9005979,3.107304 a 0.26460979,0.26460979 0 0 0 0.3612171,0 c 0,0 1.4494481,-1.35145 2.9005981,-3.107304 1.45116,-1.755854 2.93729,-3.8881818 2.93729,-5.6368658 0,-3.320978 -2.698797,-6.019271 -6.0197891,-6.019271 z m 0,0.529167 c 3.0350011,0 5.4906231,2.455108 5.4906231,5.490104 0,1.429303 -1.390396,3.5735228 -2.816366,5.2988998 C 9.803638,13.98401 8.6288748,15.078771 8.4653729,15.232965 8.3011433,15.078065 7.1292323,13.983462 5.793703,12.367506 4.3677311,10.642129 2.9773378,8.4979092 2.9773378,7.0686062 2.9773272,4.0336102 5.4303851,1.5785022 8.4653729,1.5785022 Z m 0.00982,2.07636 a 0.26460979,0.26460979 0 0 0 -0.1658805,0.05271 l -2.9393541,2.167824 a 0.26465461,0.26465461 0 1 0 0.3141927,0.425815 l 0.4397626,-0.324527 v 0.11162 2.515608 a 0.26460979,0.26460979 0 0 0 0.2635514,0.265618 h 1.4727767 1.2128473 1.472779 a 0.26460979,0.26460979 0 0 0 0.263549,-0.265618 v -2.515608 -0.111104 l 0.439248,0.324011 a 0.26474597,0.26474597 0 1 0 0.314711,-0.425815 L 8.6240197,3.7075722 a 0.26460979,0.26460979 0 0 0 -0.1488282,-0.05271 z m -0.00982,0.593762 1.8143621,1.337903 v 0.03876 0.463021 2.252059 H 9.3366378 V 6.9244292 A 0.26460979,0.26460979 0 0 0 9.073089,6.6603622 H 7.8602417 a 0.26460979,0.26460979 0 0 0 -0.2635488,0.264067 v 1.415934 H 6.6530802 v -2.252059 -0.463021 -0.03876 z m -0.3395134,2.941423 h 0.6816117 v 1.150316 H 8.1258595 Z"></svg:path></svg:g></svg>