<svg width="15" height="15" viewBox="0 0 15 15" fill="none" xmlns="http://www.w3.org/2000/svg">
<path d="M14.7244 11.75L11.3017 8.63791C11.1399 8.49085 10.9273 8.41242 10.7087 8.41918C10.4902 8.42593 10.2828 8.51735 10.1304 8.67411L8.11552 10.7463C7.63052 10.6537 6.65547 10.3497 5.6518 9.34856C4.64812 8.34405 4.34416 7.36647 4.25406 6.88485L6.32456 4.86908C6.48152 4.71678 6.57307 4.50939 6.57983 4.29079C6.58659 4.07219 6.50802 3.85954 6.36077 3.69784L3.24955 0.27592C3.10223 0.113712 2.89749 0.0153215 2.6788 0.00164342C2.4601 -0.0120346 2.24469 0.0600776 2.07831 0.202665L0.251156 1.76964C0.105582 1.91574 0.0186939 2.11019 0.00697348 2.31611C-0.00565665 2.52661 -0.246471 7.51298 3.62003 11.3812C6.99312 14.7534 11.2183 15.0001 12.382 15.0001C12.5521 15.0001 12.6565 14.9951 12.6843 14.9934C12.8901 14.9819 13.0845 14.8946 13.2299 14.7484L14.796 12.9204C14.9392 12.7545 15.0118 12.5393 14.9984 12.3206C14.9851 12.1019 14.8867 11.8971 14.7244 11.75V11.75Z" fill="#696969"/>
</svg>
