<svg width="70" height="70" fill="none" xmlns="http://www.w3.org/2000/svg">
  <path d="M70 0H0v70h70V0z" fill="#fff"/>
  <path d="M34.5 60a25.5 25.5 0 100-51 25.5 25.5 0 000 51z" fill="#0B98FE"/>
  <path d="M46.5 57.5l-3 1v-12H37s-.4-5.8 0-9.5c.2-2.4 0-3.7.5-6 .7-3.2.9-5.5 3-8 1-1.2 1.5-2 3-2.5a8 8 0 013 0v37zM30 59.5l-3-.5V39s-2.6-.7-3.5-1.5c-1-.8-1-2.5-1-2.5V20H24v10.5s.6.5 1 .5 1-.5 1-.5V20h1.5v10.5s.6.5 1 .5 1-.5 1-.5V20H31v10.5s.6.5 1 .5 1-.5 1-.5V20h1.5v15s-.2 1.7-1 2.5c-1 1-3.5 1.5-3.5 1.5v20.5z" fill="#fff"/>
</svg>