<svg width="69" height="85" fill="none" xmlns="http://www.w3.org/2000/svg">
  <g filter="url(#filter0_d)" fill="#0B98FE">
    <path d="M38.1 73.9a6 6 0 01-10.4 0l-9.2-16a6 6 0 015.2-9h18.5a6 6 0 015.2 9l-9.3 16z"/>
    <circle cx="34.5" cy="30.5" r="30.5"/>
  </g>
  <path d="M34.5 55a24.5 24.5 0 100-49 24.5 24.5 0 000 49z" fill="#fff"/>
  <path d="M45.5 53.5l-3 1v-12H36s-.4-5.8 0-9.5c.2-2.4 0-3.7.5-6 .7-3.2.9-5.5 3-8 1-1.2 1.5-2 3-2.5a8 8 0 013 0v37zM29 55.5l-3-.5V35s-2.6-.7-3.5-1.5c-1-.8-1-2.5-1-2.5V16H23v10.5s.6.5 1 .5 1-.5 1-.5V16h1.5v10.5s.6.5 1 .5 1-.5 1-.5V16H30v10.5s.6.5 1 .5 1-.5 1-.5V16h1.5v15s-.2 1.7-1 2.5c-1 1-3.5 1.5-3.5 1.5v20.5z" fill="#0B98FE"/>
  <defs>
    <filter id="filter0_d" x="0" y="0" width="69" height="84.9" filterUnits="userSpaceOnUse" color-interpolation-filters="sRGB">
      <feFlood flood-opacity="0" result="BackgroundImageFix"/>
      <feColorMatrix in="SourceAlpha" values="0 0 0 0 0 0 0 0 0 0 0 0 0 0 0 0 0 0 127 0"/>
      <feOffset dy="4"/>
      <feGaussianBlur stdDeviation="2"/>
      <feColorMatrix values="0 0 0 0 0 0 0 0 0 0 0 0 0 0 0 0 0 0 0.25 0"/>
      <feBlend in2="BackgroundImageFix" result="effect1_dropShadow"/>
      <feBlend in="SourceGraphic" in2="effect1_dropShadow" result="shape"/>
    </filter>
  </defs>
</svg>