<svg width="70" height="70" fill="none" xmlns="http://www.w3.org/2000/svg">
  <path d="M70 0H0v70h70V0z" fill="#fff"/>
  <circle cx="34.5" cy="34.5" r="25.5" fill="#3CB201"/>
  <path d="M20.2 20.4L18 20v.9c.2.6.5.8 1 1.3.9 1.2 1.9 1.5 3 2.6A37 37 0 0129 36c1.3 3 1.8 4.7 2.7 7.8.9 3.1 1.8 8.2 1.8 8.2l1.3 3.9h.9s0-3.5.4-5.6c.4-2.3.7-3.5 1.3-5.7.9-2.6 2.7-6.5 2.7-6.5h4.4s2.3-.2 3.5-.9a6.9 6.9 0 003.1-3.4c1-1.9.8-3.2.9-5.2 0-2.4-.8-3.7-.9-6.1V20h-.9l-3 2.2c-2.3 1.3-4 1.2-6.2 2.6-1.5.9-2.5 1.2-3.6 2.6-.7 1-1 1.7-1.3 3-.3 1.9.9 4.8.9 4.8s1.7-2.4 3-3.5c1.9-1.4 5.4-2.6 5.4-2.6S42 32.4 40 34.7c-1.1 1.4-1.8 2-2.7 3.5-1.8 3-2.6 8.7-2.6 8.7l-3-9.6L25 24.8s-2.4-3.5-4.9-4.4z" fill="#fff"/>
</svg>