<svg width="69" height="85" fill="none" xmlns="http://www.w3.org/2000/svg">
  <g filter="url(#filter0_d)" fill="#3CB201">
    <path d="M38.1 73.9a6 6 0 01-10.4 0l-9.2-16a6 6 0 015.2-9h18.5a6 6 0 015.2 9l-9.3 16z"/>
    <circle cx="34.5" cy="30.5" r="30.5"/>
  </g>
  <path d="M34.5 54a23.5 23.5 0 100-47 23.5 23.5 0 000 47z" fill="#fff"/>
  <path d="M19.2 16.4L17 16v.9c.2.6.5.8 1 1.3.9 1.2 1.9 1.5 3 2.6A37 37 0 0128 32c1.3 3 1.8 4.7 2.7 7.8.9 3.1 1.8 8.2 1.8 8.2l1.3 3.9h.9s0-3.5.4-5.6c.4-2.3.7-3.5 1.3-5.7.9-2.6 2.7-6.5 2.7-6.5h4.4s2.3-.2 3.5-.9a6.9 6.9 0 003.1-3.4c1-1.9.8-3.2.9-5.2 0-2.4-.8-3.7-.9-6.1V16h-.9l-3 2.2c-2.3 1.3-4 1.2-6.2 2.6-1.5.9-2.5 1.2-3.6 2.6-.7 1-1 1.7-1.3 3-.3 1.9.9 4.8.9 4.8s1.7-2.4 3-3.5c1.9-1.4 5.4-2.6 5.4-2.6S41 28.4 39 30.7c-1.1 1.4-1.8 2-2.7 3.5-1.8 3-2.6 8.7-2.6 8.7l-3-9.6L24 20.8s-2.4-3.5-4.9-4.4z" fill="#3CB201"/>
  <defs>
    <filter id="filter0_d" x="0" y="0" width="69" height="84.9" filterUnits="userSpaceOnUse" color-interpolation-filters="sRGB">
      <feFlood flood-opacity="0" result="BackgroundImageFix"/>
      <feColorMatrix in="SourceAlpha" values="0 0 0 0 0 0 0 0 0 0 0 0 0 0 0 0 0 0 127 0"/>
      <feOffset dy="4"/>
      <feGaussianBlur stdDeviation="2"/>
      <feColorMatrix values="0 0 0 0 0 0 0 0 0 0 0 0 0 0 0 0 0 0 0.25 0"/>
      <feBlend in2="BackgroundImageFix" result="effect1_dropShadow"/>
      <feBlend in="SourceGraphic" in2="effect1_dropShadow" result="shape"/>
    </filter>
  </defs>
</svg>