<svg width="48" height="45" viewBox="0 0 48 45" fill="none" xmlns="http://www.w3.org/2000/svg">
<path d="M47 31.713V28.6675C47 26.4172 46.3128 24.317 45.4997 22.3429C45.0452 21.2383 44.5412 20.1657 44.0964 19.0531C43.7808 18.2592 43.4803 17.4109 43.3554 16.5294C43.7743 16.1988 43.9273 15.4939 43.8433 14.8832C43.7442 14.1809 43.2035 13.8132 42.6758 13.8132H40.692H38.7566C38.2289 13.8132 37.7324 14.0933 37.5698 14.777C37.4201 15.4063 37.5859 16.1776 38.0329 16.5294C37.8272 18.0707 37.1099 19.5191 36.5208 20.8666C35.7475 22.6389 34.972 24.4444 34.5994 26.4146C34.2914 28.0488 34.3883 32.8326 34.3883 34.5L34.3748 32.1093L29.9999 32.2466C28.6871 30.546 26.8256 28.4484 25.3566 27.405C25.0249 27.1673 24.9236 26.8221 24.9678 26.4903C25.0626 25.8145 25.7497 25.1959 26.4088 25.6605C28.1277 26.8845 29.7852 28.2719 31.2402 29.8875C31.2402 29.8875 31.4126 28.3807 31.1875 26.8885C30.9452 25.2981 30.3679 24.1311 30.3679 24.1311C28.635 21.2198 26.1514 17.9685 23.6593 16.2055C22.6695 15.5045 23.725 13.7627 24.7136 14.4637C26.4293 15.6798 28.0836 17.0684 29.5375 18.6788C27.4158 5.62465 23.3663 -0.703925 18.243 0.062089C15.8241 0.421864 13.0777 2.57255 14.438 11.543L17.0529 28.8202C15.2953 25.9008 13.675 25.6605 10.5 25.6605C6.36756 25.6605 7.37317 28.4968 6 33L47 31.713Z" fill="#5C48DA"/>
<path d="M2.99994 22.5965C5.53627 25.1746 9.48777 24.4299 9.48777 24.4299C9.48777 24.4299 9.32515 19.5099 6.78666 16.9317C4.25141 14.3549 0.298829 15.0943 0.298829 15.0943C0.298829 15.0943 0.462532 20.0196 2.99994 22.5965Z" fill="#5C48DA"/>
<path d="M22.5815 44L4 32.7612L7.90909 27L27.5 30L34.6312 37.8235L35 30.5L45.5 32L34.6312 37.8235L22.5815 44Z" fill="#5C48DA"/>
<path d="M34.6312 37.8235L22.5815 44L4 32.7612L7.90909 27L27.5 30L34.6312 37.8235ZM34.6312 37.8235L45.5 32L35 30.5L34.6312 37.8235Z" stroke="#5C48DA"/>
<ellipse cx="11.5" cy="34" rx="9.5" ry="9" fill="#C24701"/>
</svg>
