<svg width="150" height="34" viewBox="0 0 150 34" fill="none" xmlns="http://www.w3.org/2000/svg">
<path d="M21.025 1.25C21.5417 1.35 21.925 1.525 22.175 1.775C22.4417 2.025 22.575 2.31667 22.575 2.65C22.575 3.2 22.4167 3.6 22.1 3.85C21.8 4.1 21.3167 4.2 20.65 4.15C19.15 4.03333 17.975 3.95833 17.125 3.925C16.2917 3.875 15.1917 3.84167 13.825 3.825C13.2083 6.89167 12.6417 9.975 12.125 13.075C11.9417 14.2083 11.75 15.525 11.55 17.025C11.35 18.5083 11.2167 19.7083 11.15 20.625C11.1167 21.1083 10.9167 21.4833 10.55 21.75C10.1833 22 9.74167 22.125 9.225 22.125C8.675 22.125 8.25 21.9917 7.95 21.725C7.65 21.4583 7.5 21.1083 7.5 20.675C7.5 20.275 7.55833 19.6167 7.675 18.7C7.80833 17.7667 7.95833 16.7917 8.125 15.775C8.30833 14.7583 8.45 13.875 8.55 13.125C8.73333 11.8583 8.94167 10.6 9.175 9.35C9.40833 8.1 9.64167 6.91667 9.875 5.8C9.925 5.55 9.98333 5.26667 10.05 4.95C10.1167 4.61667 10.1917 4.25 10.275 3.85C8.64167 3.9 7.35833 4.03333 6.425 4.25C5.49167 4.46667 4.825 4.775 4.425 5.175C4.04167 5.55833 3.85 6.05833 3.85 6.675C3.85 7.24167 4.01667 7.78333 4.35 8.3C4.41667 8.41667 4.45 8.54167 4.45 8.675C4.45 8.99167 4.25833 9.29167 3.875 9.575C3.50833 9.84167 3.125 9.975 2.725 9.975C2.44167 9.975 2.20833 9.89167 2.025 9.725C1.69167 9.44167 1.41667 9.04167 1.2 8.525C0.983333 7.99167 0.875 7.39167 0.875 6.725C0.875 5.30833 1.33333 4.175 2.25 3.325C3.18333 2.45833 4.59167 1.825 6.475 1.425C8.375 1.025 10.8083 0.824998 13.775 0.824998C15.6083 0.824998 17.0667 0.858332 18.15 0.924999C19.25 0.991665 20.2083 1.1 21.025 1.25ZM21.1498 8.7C20.4498 8.7 19.9248 8.54167 19.5748 8.225C19.2248 7.89167 19.0498 7.43333 19.0498 6.85C19.0498 6.26667 19.2748 5.78333 19.7248 5.4C20.1915 5 20.7665 4.8 21.4498 4.8C22.0665 4.8 22.5665 4.95 22.9498 5.25C23.3331 5.55 23.5248 5.975 23.5248 6.525C23.5248 7.19167 23.3081 7.725 22.8748 8.125C22.4415 8.50833 21.8665 8.7 21.1498 8.7ZM20.9498 22.125C19.8665 22.125 19.0748 21.7417 18.5748 20.975C18.0915 20.2083 17.8498 19.1917 17.8498 17.925C17.8498 17.175 17.9415 16.2167 18.1248 15.05C18.3248 13.8667 18.5748 12.7667 18.8748 11.75C19.0248 11.2167 19.2248 10.85 19.4748 10.65C19.7248 10.45 20.1248 10.35 20.6748 10.35C21.5248 10.35 21.9498 10.6333 21.9498 11.2C21.9498 11.6167 21.7915 12.5833 21.4748 14.1C21.0748 15.9333 20.8748 17.175 20.8748 17.825C20.8748 18.325 20.9415 18.7083 21.0748 18.975C21.2081 19.2417 21.4331 19.375 21.7498 19.375C22.0498 19.375 22.4248 19.1667 22.8748 18.75C23.3248 18.3333 23.9248 17.675 24.6748 16.775C24.8748 16.5417 25.0998 16.425 25.3498 16.425C25.5665 16.425 25.7331 16.525 25.8498 16.725C25.9831 16.925 26.0498 17.2 26.0498 17.55C26.0498 18.2167 25.8915 18.7333 25.5748 19.1C23.9248 21.1167 22.3831 22.125 20.9498 22.125ZM25.8021 22.125C25.1688 22.125 24.7188 21.7917 24.4521 21.125C24.2021 20.4583 24.0771 19.3917 24.0771 17.925C24.0771 15.7583 24.3855 13.7 25.0021 11.75C25.1521 11.2667 25.3938 10.9167 25.7271 10.7C26.0771 10.4667 26.5605 10.35 27.1771 10.35C27.5105 10.35 27.7438 10.3917 27.8771 10.475C28.0105 10.5583 28.0771 10.7167 28.0771 10.95C28.0771 11.2167 27.9521 11.8167 27.7021 12.75C27.5355 13.4167 27.4021 14 27.3021 14.5C27.2021 14.9833 27.1188 15.5917 27.0521 16.325C27.5021 15.025 28.0355 13.925 28.6521 13.025C29.2855 12.125 29.9271 11.4583 30.5771 11.025C31.2438 10.575 31.8688 10.35 32.4521 10.35C33.0355 10.35 33.4438 10.4833 33.6771 10.75C33.9271 11.0167 34.0521 11.425 34.0521 11.975C34.0521 12.5083 33.8938 13.475 33.5771 14.875C33.4438 15.475 33.3521 15.925 33.3021 16.225C34.1355 14.175 35.0605 12.6833 36.0771 11.75C37.0938 10.8167 38.0438 10.35 38.9271 10.35C40.0105 10.35 40.5521 10.8917 40.5521 11.975C40.5521 12.625 40.3688 13.8 40.0021 15.5C39.6855 16.95 39.5271 17.9083 39.5271 18.375C39.5271 19.0417 39.7688 19.375 40.2521 19.375C40.5855 19.375 40.9771 19.175 41.4271 18.775C41.8938 18.3583 42.5105 17.6917 43.2771 16.775C43.4771 16.5417 43.7021 16.425 43.9521 16.425C44.1688 16.425 44.3355 16.525 44.4522 16.725C44.5855 16.925 44.6521 17.2 44.6521 17.55C44.6521 18.2167 44.4938 18.7333 44.1771 19.1C43.4605 19.9833 42.6855 20.7083 41.8521 21.275C41.0355 21.8417 40.1021 22.125 39.0521 22.125C38.2021 22.125 37.5605 21.8833 37.1271 21.4C36.6938 20.9 36.4771 20.1833 36.4771 19.25C36.4771 18.7833 36.5938 17.95 36.8271 16.75C37.0438 15.7 37.1521 14.975 37.1521 14.575C37.1521 14.3083 37.0605 14.175 36.8771 14.175C36.6605 14.175 36.3521 14.4583 35.9521 15.025C35.5521 15.575 35.1521 16.3083 34.7521 17.225C34.3521 18.1417 34.0271 19.1083 33.7771 20.125C33.5938 20.925 33.3771 21.4583 33.1271 21.725C32.8938 21.9917 32.5105 22.125 31.9771 22.125C31.4271 22.125 31.0105 21.8667 30.7271 21.35C30.4605 20.8167 30.3271 20.175 30.3271 19.425C30.3271 18.7917 30.4105 17.875 30.5771 16.675C30.7105 15.6083 30.7771 14.9083 30.7771 14.575C30.7771 14.3083 30.6855 14.175 30.5021 14.175C30.2521 14.175 29.9355 14.475 29.5521 15.075C29.1688 15.675 28.7938 16.4417 28.4271 17.375C28.0771 18.3083 27.7938 19.225 27.5771 20.125C27.3938 20.9083 27.1771 21.4417 26.9271 21.725C26.6938 21.9917 26.3188 22.125 25.8021 22.125ZM51.5807 17.175C51.7973 17.175 51.964 17.275 52.0807 17.475C52.214 17.675 52.2807 17.95 52.2807 18.3C52.2807 18.9 52.139 19.4167 51.8557 19.85C51.389 20.5667 50.7723 21.125 50.0057 21.525C49.2557 21.925 48.3557 22.125 47.3057 22.125C45.7057 22.125 44.464 21.65 43.5807 20.7C42.6973 19.7333 42.2557 18.4333 42.2557 16.8C42.2557 15.65 42.4973 14.5833 42.9807 13.6C43.464 12.6 44.1307 11.8083 44.9807 11.225C45.8473 10.6417 46.8223 10.35 47.9057 10.35C48.8723 10.35 49.6473 10.6417 50.2307 11.225C50.814 11.7917 51.1057 12.5667 51.1057 13.55C51.1057 14.7 50.689 15.6917 49.8557 16.525C49.039 17.3417 47.639 17.9917 45.6557 18.475C46.0557 19.2417 46.7307 19.625 47.6807 19.625C48.364 19.625 48.9223 19.4667 49.3557 19.15C49.8057 18.8333 50.3223 18.3 50.9057 17.55C51.1057 17.3 51.3307 17.175 51.5807 17.175ZM47.4807 12.8C46.864 12.8 46.339 13.1583 45.9057 13.875C45.489 14.5917 45.2807 15.4583 45.2807 16.475V16.525C46.264 16.2917 47.039 15.9417 47.6057 15.475C48.1723 15.0083 48.4557 14.4667 48.4557 13.85C48.4557 13.5333 48.364 13.2833 48.1807 13.1C48.014 12.9 47.7807 12.8 47.4807 12.8ZM70.6752 16.425C70.8919 16.425 71.0585 16.525 71.1752 16.725C71.3085 16.925 71.3752 17.2 71.3752 17.55C71.3752 18.2167 71.2169 18.7333 70.9002 19.1C70.1835 19.9833 69.4002 20.7083 68.5502 21.275C67.7002 21.8417 66.7252 22.125 65.6252 22.125C62.2252 22.125 60.5252 19.7333 60.5252 14.95C60.5252 14.2167 60.5502 13.475 60.6002 12.725H59.6252C59.1252 12.725 58.7835 12.6333 58.6002 12.45C58.4335 12.2667 58.3502 11.975 58.3502 11.575C58.3502 10.6417 58.7252 10.175 59.4752 10.175H60.9002C61.1835 8.34167 61.6169 6.66667 62.2002 5.15C62.7835 3.63333 63.4835 2.425 64.3002 1.525C65.1335 0.624999 66.0252 0.174999 66.9752 0.174999C67.6752 0.174999 68.2252 0.483333 68.6252 1.1C69.0252 1.71667 69.2252 2.49167 69.2252 3.425C69.2252 6.00833 68.1419 8.25833 65.9752 10.175H68.7752C69.0419 10.175 69.2335 10.2333 69.3502 10.35C69.4669 10.4667 69.5252 10.6833 69.5252 11C69.5252 12.15 68.5835 12.725 66.7002 12.725H63.6502C63.6169 13.5583 63.6002 14.2083 63.6002 14.675C63.6002 16.4083 63.8002 17.625 64.2002 18.325C64.6169 19.025 65.2669 19.375 66.1502 19.375C66.8669 19.375 67.5002 19.1583 68.0502 18.725C68.6002 18.2917 69.2502 17.6417 70.0002 16.775C70.2002 16.5417 70.4252 16.425 70.6752 16.425ZM66.3002 2.575C66.0502 2.575 65.7669 2.89167 65.4502 3.525C65.1502 4.14167 64.8585 5.00833 64.5752 6.125C64.3085 7.225 64.0835 8.45 63.9002 9.8C64.8835 8.95 65.6169 8 66.1002 6.95C66.6002 5.88333 66.8502 4.91667 66.8502 4.05C66.8502 3.06667 66.6669 2.575 66.3002 2.575ZM73.5646 22.125C72.5813 22.125 71.7396 21.8833 71.0396 21.4C70.3563 20.9 69.8396 20.25 69.4896 19.45C69.1396 18.65 68.9646 17.7917 68.9646 16.875C68.9646 15.6083 69.198 14.4833 69.6646 13.5C70.148 12.5 70.798 11.725 71.6146 11.175C72.4313 10.6083 73.348 10.325 74.3646 10.325C75.348 10.325 76.1896 10.575 76.8896 11.075C77.5896 11.5583 78.1146 12.2 78.4646 13C78.8146 13.8 78.9896 14.6583 78.9896 15.575C78.9896 16.8417 78.748 17.975 78.2646 18.975C77.7813 19.9583 77.123 20.7333 76.2896 21.3C75.473 21.85 74.5646 22.125 73.5646 22.125ZM73.8396 19.425C74.4063 19.425 74.8813 19.1167 75.2646 18.5C75.6646 17.8833 75.8646 16.9833 75.8646 15.8C75.8646 14.8833 75.698 14.1917 75.3646 13.725C75.0313 13.2583 74.6313 13.025 74.1646 13.025C73.5646 13.025 73.0646 13.3333 72.6646 13.95C72.2813 14.55 72.0896 15.45 72.0896 16.65C72.0896 17.6 72.2563 18.3 72.5896 18.75C72.923 19.2 73.3396 19.425 73.8396 19.425ZM94.259 22.2C92.0423 22.2 90.2673 21.7833 88.934 20.95C87.6007 20.1 86.934 18.8083 86.934 17.075C86.934 16.1583 87.0923 15.4583 87.409 14.975C87.7257 14.4917 88.1923 14.25 88.809 14.25C89.259 14.25 89.6257 14.3667 89.909 14.6C90.1923 14.8333 90.334 15.1333 90.334 15.5C90.334 15.8333 90.309 16.125 90.259 16.375C90.259 16.4417 90.2423 16.5583 90.209 16.725C90.1923 16.8917 90.184 17.0667 90.184 17.25C90.184 18 90.559 18.5583 91.309 18.925C92.0757 19.2917 93.1423 19.475 94.509 19.475C95.9257 19.475 97.034 19.225 97.834 18.725C98.634 18.2083 99.034 17.4917 99.034 16.575C99.034 16.0083 98.8507 15.525 98.484 15.125C98.1173 14.7083 97.659 14.3667 97.109 14.1C96.559 13.8167 95.784 13.475 94.784 13.075C93.5007 12.575 92.4507 12.1 91.634 11.65C90.834 11.2 90.1423 10.5917 89.559 9.825C88.9923 9.04167 88.709 8.075 88.709 6.925C88.709 5.725 89.0257 4.65833 89.659 3.725C90.309 2.79167 91.234 2.06667 92.434 1.55C93.6507 1.03333 95.0757 0.774999 96.709 0.774999C97.9257 0.774999 99.0423 0.958333 100.059 1.325C101.076 1.675 101.884 2.21667 102.484 2.95C103.101 3.68333 103.409 4.58333 103.409 5.65C103.409 6.7 103.251 7.49167 102.934 8.025C102.617 8.55833 102.151 8.825 101.534 8.825C101.101 8.825 100.734 8.69167 100.434 8.425C100.151 8.15833 100.009 7.84167 100.009 7.475C100.009 7.15833 100.034 6.86667 100.084 6.6C100.134 6.1 100.159 5.78333 100.159 5.65C100.159 4.95 99.8173 4.41667 99.134 4.05C98.4507 3.68333 97.6007 3.5 96.584 3.5C95.1507 3.5 94.0507 3.76667 93.284 4.3C92.534 4.81667 92.159 5.55 92.159 6.5C92.159 7.13333 92.3507 7.675 92.734 8.125C93.134 8.575 93.6257 8.95 94.209 9.25C94.7923 9.55 95.609 9.90833 96.659 10.325C97.9257 10.8417 98.9423 11.3083 99.709 11.725C100.476 12.1417 101.126 12.7083 101.659 13.425C102.209 14.1417 102.484 15.025 102.484 16.075C102.484 18.0417 101.734 19.5583 100.234 20.625C98.7507 21.675 96.759 22.2 94.259 22.2ZM117.968 16.425C118.185 16.425 118.351 16.525 118.468 16.725C118.601 16.925 118.668 17.2 118.668 17.55C118.668 18.2167 118.51 18.7333 118.193 19.1C117.476 19.9833 116.701 20.7083 115.868 21.275C115.051 21.8417 114.118 22.125 113.068 22.125C112.185 22.125 111.468 21.8083 110.918 21.175C109.968 21.7917 108.976 22.1083 107.943 22.125C107.726 25.3417 107.235 28.025 106.468 30.175C105.701 32.3417 104.576 33.425 103.093 33.425C102.193 33.425 101.526 33.1 101.093 32.45C100.66 31.8 100.443 30.9 100.443 29.75C100.443 28.1167 100.818 26.2083 101.568 24.025C102.318 21.8583 103.476 19.4667 105.043 16.85C105.043 14.4167 105.026 12.725 104.993 11.775C104.976 11.2917 105.168 10.9083 105.568 10.625C105.968 10.3417 106.468 10.2 107.068 10.2C107.418 10.2 107.668 10.275 107.818 10.425C107.985 10.5583 108.076 10.8333 108.093 11.25C108.093 11.6667 108.101 11.975 108.118 12.175C108.651 11.5083 109.176 11.0333 109.693 10.75C110.21 10.45 110.76 10.3 111.343 10.3C112.276 10.3 113.035 10.675 113.618 11.425C114.218 12.175 114.518 13.1583 114.518 14.375C114.518 15.2583 114.376 16.1167 114.093 16.95C113.81 17.7833 113.418 18.5417 112.918 19.225C113.268 19.325 113.56 19.375 113.793 19.375C114.343 19.375 114.868 19.175 115.368 18.775C115.868 18.375 116.51 17.7083 117.293 16.775C117.493 16.5417 117.718 16.425 117.968 16.425ZM108.068 19.725C108.668 19.5917 109.218 19.2667 109.718 18.75C110.235 18.2167 110.643 17.5667 110.943 16.8C111.243 16.0167 111.393 15.2 111.393 14.35C111.393 13.85 111.293 13.475 111.093 13.225C110.893 12.9583 110.626 12.825 110.293 12.825C109.693 12.825 108.968 13.4583 108.118 14.725C108.101 15.4583 108.093 16.5333 108.093 17.95C108.093 18.7167 108.085 19.3083 108.068 19.725ZM103.293 30.975C103.743 30.975 104.118 29.9917 104.418 28.025C104.718 26.075 104.91 23.6417 104.993 20.725C104.276 22.3917 103.71 23.9833 103.293 25.5C102.876 27.0167 102.668 28.2917 102.668 29.325C102.668 29.8583 102.735 30.2667 102.868 30.55C102.985 30.8333 103.126 30.975 103.293 30.975ZM119.729 22.125C118.696 22.125 117.871 21.75 117.254 21C116.637 20.25 116.329 19.2667 116.329 18.05C116.329 16.7167 116.637 15.4583 117.254 14.275C117.871 13.075 118.687 12.1167 119.704 11.4C120.737 10.6667 121.829 10.3 122.979 10.3C123.346 10.3 123.587 10.375 123.704 10.525C123.837 10.6583 123.946 10.9083 124.029 11.275C124.379 11.2083 124.746 11.175 125.129 11.175C125.946 11.175 126.354 11.4667 126.354 12.05C126.354 12.4 126.229 13.2333 125.979 14.55C125.596 16.4667 125.404 17.8 125.404 18.55C125.404 18.8 125.462 19 125.579 19.15C125.712 19.3 125.879 19.375 126.079 19.375C126.396 19.375 126.779 19.175 127.229 18.775C127.679 18.3583 128.287 17.6917 129.054 16.775C129.254 16.5417 129.479 16.425 129.729 16.425C129.946 16.425 130.112 16.525 130.229 16.725C130.362 16.925 130.429 17.2 130.429 17.55C130.429 18.2167 130.271 18.7333 129.954 19.1C129.271 19.95 128.546 20.6667 127.779 21.25C127.012 21.8333 126.271 22.125 125.554 22.125C125.004 22.125 124.496 21.9417 124.029 21.575C123.579 21.1917 123.237 20.675 123.004 20.025C122.137 21.425 121.046 22.125 119.729 22.125ZM120.629 19.6C120.996 19.6 121.346 19.3833 121.679 18.95C122.012 18.5167 122.254 17.9417 122.404 17.225L123.329 12.625C122.629 12.6417 121.979 12.9083 121.379 13.425C120.796 13.925 120.329 14.5917 119.979 15.425C119.629 16.2583 119.454 17.1417 119.454 18.075C119.454 18.5917 119.554 18.975 119.754 19.225C119.971 19.475 120.262 19.6 120.629 19.6ZM130.172 22.125C129.539 22.125 129.089 21.7917 128.822 21.125C128.572 20.4583 128.447 19.3917 128.447 17.925C128.447 15.7583 128.756 13.7 129.372 11.75C129.522 11.2667 129.764 10.9167 130.097 10.7C130.447 10.4667 130.931 10.35 131.547 10.35C131.881 10.35 132.114 10.3917 132.247 10.475C132.381 10.5583 132.447 10.7167 132.447 10.95C132.447 11.2167 132.322 11.8167 132.072 12.75C131.906 13.4167 131.772 14 131.672 14.5C131.572 15 131.489 15.6167 131.422 16.35C131.972 14.9167 132.589 13.75 133.272 12.85C133.956 11.95 134.622 11.3083 135.272 10.925C135.939 10.5417 136.547 10.35 137.097 10.35C138.181 10.35 138.722 10.8917 138.722 11.975C138.722 12.1917 138.647 12.7167 138.497 13.55C138.364 14.2167 138.297 14.6333 138.297 14.8C138.297 15.3833 138.506 15.675 138.922 15.675C139.389 15.675 139.989 15.3083 140.722 14.575C140.939 14.3583 141.164 14.25 141.397 14.25C141.614 14.25 141.781 14.35 141.897 14.55C142.031 14.7333 142.097 14.9833 142.097 15.3C142.097 15.9167 141.931 16.4 141.597 16.75C141.131 17.2333 140.581 17.65 139.947 18C139.331 18.3333 138.672 18.5 137.972 18.5C137.089 18.5 136.414 18.275 135.947 17.825C135.497 17.375 135.272 16.7667 135.272 16C135.272 15.75 135.297 15.5 135.347 15.25C135.381 14.9167 135.397 14.6917 135.397 14.575C135.397 14.3083 135.306 14.175 135.122 14.175C134.872 14.175 134.539 14.4583 134.122 15.025C133.722 15.575 133.322 16.3083 132.922 17.225C132.522 18.1417 132.197 19.1083 131.947 20.125C131.764 20.9083 131.547 21.4417 131.297 21.725C131.064 21.9917 130.689 22.125 130.172 22.125ZM148.724 17.175C148.941 17.175 149.108 17.275 149.224 17.475C149.358 17.675 149.424 17.95 149.424 18.3C149.424 18.9 149.283 19.4167 148.999 19.85C148.533 20.5667 147.916 21.125 147.149 21.525C146.399 21.925 145.499 22.125 144.449 22.125C142.849 22.125 141.608 21.65 140.724 20.7C139.841 19.7333 139.399 18.4333 139.399 16.8C139.399 15.65 139.641 14.5833 140.124 13.6C140.608 12.6 141.274 11.8083 142.124 11.225C142.991 10.6417 143.966 10.35 145.049 10.35C146.016 10.35 146.791 10.6417 147.374 11.225C147.958 11.7917 148.249 12.5667 148.249 13.55C148.249 14.7 147.833 15.6917 146.999 16.525C146.183 17.3417 144.783 17.9917 142.799 18.475C143.199 19.2417 143.874 19.625 144.824 19.625C145.508 19.625 146.066 19.4667 146.499 19.15C146.949 18.8333 147.466 18.3 148.049 17.55C148.249 17.3 148.474 17.175 148.724 17.175ZM144.624 12.8C144.008 12.8 143.483 13.1583 143.049 13.875C142.633 14.5917 142.424 15.4583 142.424 16.475V16.525C143.408 16.2917 144.183 15.9417 144.749 15.475C145.316 15.0083 145.599 14.4667 145.599 13.85C145.599 13.5333 145.508 13.2833 145.324 13.1C145.158 12.9 144.924 12.8 144.624 12.8Z" fill="#000AB2"/>
</svg>
